<svg xmlns="http://www.w3.org/2000/svg" viewBox="0 0 171.67 177.95"><defs><style>.cls-1{fill:#d32027;}.cls-1,.cls-2{fill-rule:evenodd;}.cls-2{fill:#e8ebee;}.cls-3{fill:#1f324f;}</style></defs><title>advertisements</title><g id="Layer_2" data-name="Layer 2"><g id="Layer_1-2" data-name="Layer 1"><path class="cls-1" d="M25.8,113.64h0Zm6.5-7.49H22a3.73,3.73,0,0,0-3.74,3.74v36.82A3.74,3.74,0,0,0,22,150.46H36.37a3.75,3.75,0,0,0,3.75-3.75V109.89a3.74,3.74,0,0,0-3.75-3.74Z"/><path class="cls-1" d="M90.26,124.1V50.24c-15.59,10-41,16.9-44.11,17.73a3.79,3.79,0,0,1-1.26.22H39.8v38h5a3.63,3.63,0,0,1,1,.12h0C46.26,106.39,73.76,113.55,90.26,124.1Z"/><path class="cls-1" d="M32.3,106.15v-38H25.8A18.37,18.37,0,0,0,7.49,86.5v1.34A18.39,18.39,0,0,0,25.8,106.15Z"/><path class="cls-2" d="M97.75,87.17V96.3a9.37,9.37,0,0,0,0-18.26Z"/><path class="cls-2" d="M124,100.05h42V74.28H124v25.77Zm21.55-12.88-3.14,2.22V84.94Z"/><path class="cls-3" d="M44.45,60.7C48.7,59.56,79.31,51.08,91.5,40h0a3.74,3.74,0,0,1,6.26,2.77h0v88.74A3.75,3.75,0,0,1,94,135.29a3.71,3.71,0,0,1-2.73-1.18c-12.34-11-42.61-19.34-46.83-20.47H25.8A25.88,25.88,0,0,1,0,87.84V86.5A25.86,25.86,0,0,1,25.8,60.7ZM90.26,50.24c-15.59,10-41,16.9-44.11,17.73a3.79,3.79,0,0,1-1.26.22H25.8A18.37,18.37,0,0,0,7.49,86.5v1.34A18.39,18.39,0,0,0,25.8,106.15h19a3.63,3.63,0,0,1,1,.12h0c.42.11,27.92,7.27,44.42,17.82V50.24Z"/><path class="cls-3" d="M39.8,64.44a3.75,3.75,0,0,0-7.5,0v45.45a3.75,3.75,0,0,0,7.5,0Z"/><path class="cls-3" d="M95.63,70.3a3.75,3.75,0,0,0,0,7.5,9.37,9.37,0,1,1,0,18.74,3.75,3.75,0,0,0,0,7.49,16.87,16.87,0,1,0,0-33.73Z"/><path class="cls-3" d="M22,106.15H36.37a3.74,3.74,0,0,1,3.75,3.74v36.82a3.75,3.75,0,0,1-3.75,3.75H22a3.74,3.74,0,0,1-3.74-3.75V109.89A3.73,3.73,0,0,1,22,106.15Zm10.64,7.49H25.73V143h6.89Z"/><path class="cls-3" d="M103.35,24.1,144.43.38h0a2.8,2.8,0,0,1,3.84,1l.09.16,15.6,27h0a2.82,2.82,0,0,1-1,3.84l-.23.12-41,23.68h0a2.81,2.81,0,0,1-3.84-1l-.12-.24L102.17,28h0a2.81,2.81,0,0,1,1-3.84l.16-.09ZM144.81,6.64l-36.4,21L121.31,50l36.4-21Z"/><path class="cls-3" d="M148.39,4,137.08,31.83h0a2.81,2.81,0,0,1-3.19,1.69L104.21,29.4h0a2.81,2.81,0,0,1-.84-5.31L144.43.38h0a2.81,2.81,0,0,1,4,3.61ZM132.7,27.69l7.46-18.37L113.06,25Z"/><path class="cls-3" d="M121.23,68.66h47.63a2.81,2.81,0,0,1,2.81,2.81v31.39a2.81,2.81,0,0,1-2.81,2.81H121.23a2.81,2.81,0,0,1-2.81-2.81V71.47a2.81,2.81,0,0,1,2.81-2.81Zm44.82,5.62H124v25.77h42Z"/><path class="cls-3" d="M151.92,89.56,141.26,97.1h0a2.81,2.81,0,0,1-3.92-.67,2.76,2.76,0,0,1-.51-1.63V79.52a2.81,2.81,0,0,1,2.81-2.81,2.87,2.87,0,0,1,1.76.62l10.67,7.54h0a2.82,2.82,0,0,1,.68,3.92,2.76,2.76,0,0,1-.83.77Zm-9.47-.17,3.14-2.22-3.14-2.23Z"/><path class="cls-3" d="M157.71,149l-36.4-21L108.42,150.3l36.39,21L157.71,149Zm-36-27.27,41.08,23.72.17.09a2.82,2.82,0,0,1,1,3.84h0l-15.57,27-.12.23a2.8,2.8,0,0,1-3.84,1h0l-41-23.68-.24-.12a2.81,2.81,0,0,1-1-3.84h0l15.6-27,.09-.17a2.82,2.82,0,0,1,3.84-1Z"/><path class="cls-3" d="M133.06,141.12a8.52,8.52,0,1,1-6,2.49,8.49,8.49,0,0,1,6-2.49Zm2.05,6.47a2.9,2.9,0,0,0-4.1,0,2.9,2.9,0,1,0,5,2A2.86,2.86,0,0,0,135.11,147.59Z"/><path class="cls-3" d="M147.29,144.67a2.81,2.81,0,0,0-2.81,4.86l5.52,3.18a2.8,2.8,0,0,0,2.81-4.85Z"/><path class="cls-2" d="M121.31,128,108.42,150.3l36.39,21L157.71,149l-36.4-21ZM127,143.61a8.51,8.51,0,1,1-2.5,6,8.49,8.49,0,0,1,2.5-6Zm16.42,2.09a2.81,2.81,0,0,1,3.83-1l5.52,3.19a2.8,2.8,0,0,1-2.81,4.85l-5.52-3.18A2.81,2.81,0,0,1,143.46,145.7Z"/><path class="cls-2" d="M121.31,50l36.4-21L146.28,9.18l-9.2,22.65h0a2.81,2.81,0,0,1-3.19,1.69l-24-3.33Z"/><polygon class="cls-1" points="132.7 27.69 140.16 9.32 113.06 24.97 132.7 27.69"/><path class="cls-1" d="M135.11,147.59a2.9,2.9,0,0,0-4.1,0,2.9,2.9,0,1,0,5,2A2.86,2.86,0,0,0,135.11,147.59Z"/><polygon class="cls-1" points="142.45 89.39 145.59 87.17 142.45 84.94 142.45 89.39"/></g></g></svg>