<svg xmlns="http://www.w3.org/2000/svg" width="38.26" height="38.26" viewBox="0 0 38.26 38.26">
  <g id="noun_Email_2132252" transform="translate(-3 -3)">
    <path id="Path_103" data-name="Path 103" d="M41.26,17.891a.725.725,0,0,0-.017-.073.739.739,0,0,0-.048-.206A.437.437,0,0,0,41,17.334c-.016-.015-.023-.036-.04-.049l-6.3-4.851V5.324A2.327,2.327,0,0,0,32.331,3H16.71c-.017,0-.031.009-.048.01a.77.77,0,0,0-.49.212l0,0-6.34,6.34,0,0a.758.758,0,0,0-.146.216.742.742,0,0,0-.026.072.751.751,0,0,0-.041.2c0,.016-.009.03-.009.046v2.327L3.3,17.284c-.017.013-.025.035-.041.05a.725.725,0,0,0-.1.09.725.725,0,0,0-.041.085.731.731,0,0,0-.05.1.739.739,0,0,0-.048.206A.729.729,0,0,0,3,17.891v22.6a.768.768,0,0,0,.765.765H40.495a.768.768,0,0,0,.765-.765Zm-6.6-3.527,4.577,3.522-4.577,3.48ZM15.945,5.612V8.547a.794.794,0,0,1-.794.794H12.216Zm-4.811,5.259h4.017a2.327,2.327,0,0,0,2.324-2.324V4.53H32.331a.8.8,0,0,1,.794.794v17.2L22.819,30.367a1.141,1.141,0,0,1-1.378,0L11.134,22.529ZM9.6,14.364v7l-4.577-3.48ZM4.53,19.43l10.916,8.3L4.53,38.647Zm1.082,20.3L16.676,28.666l3.838,2.919a2.675,2.675,0,0,0,3.231,0l3.838-2.919L38.647,39.729Zm34.117-1.082L28.813,27.731l10.916-8.3Z" fill="#1f324f"/>
    <path id="Path_104" data-name="Path 104" d="M24.341,9.194H35.819a.765.765,0,0,0,0-1.53H24.341a.765.765,0,0,0,0,1.53Z" transform="translate(-4.831 -1.095)" fill="#eb2233"/>
    <path id="Path_105" data-name="Path 105" d="M16.723,16.089H34.031a.765.765,0,1,0,0-1.53H16.723a.765.765,0,1,0,0,1.53Z" transform="translate(-3.043 -2.714)" fill="#eb2233"/>
    <path id="Path_106" data-name="Path 106" d="M34.8,22.22a.765.765,0,0,0-.765-.765H16.723a.765.765,0,1,0,0,1.53H34.031A.765.765,0,0,0,34.8,22.22Z" transform="translate(-3.043 -4.333)" fill="#eb2233"/>
    <path id="Path_107" data-name="Path 107" d="M31.934,29.116a.765.765,0,0,0-.765-.765H21.348a.765.765,0,1,0,0,1.53h9.821A.765.765,0,0,0,31.934,29.116Z" transform="translate(-4.129 -5.953)" fill="#eb2233"/>
  </g>
</svg>
