<svg xmlns="http://www.w3.org/2000/svg" width="521.427" height="153.547" viewBox="0 0 521.427 153.547">
  <g id="Group_128" data-name="Group 128" transform="translate(-1618.63 -732.578)">
    <path id="Path_111" data-name="Path 111" d="M1631.615,805.231l-12.985,22.493h37.749l12.986-22.493Z" fill="#d52027"/>
    <path id="Path_112" data-name="Path 112" d="M1718.548,732.578l89.163,153.536h-26.016l-63.147-108.552-49.689,86.071h27.988a17.957,17.957,0,0,0,3.52-35.564l11.512-19.94a40.447,40.447,0,0,1-15.032,78H1629.9Z" fill="#1d324f"/>
    <path id="Path_113" data-name="Path 113" d="M1899.39,835.517a1.732,1.732,0,0,1-1.727,2.439H1883.23a1.468,1.468,0,0,1-1.323-.812l-6.606-15.451h-27.65l-6.606,15.451a1.468,1.468,0,0,1-1.323.812h-14.433a1.732,1.732,0,0,1-1.727-2.439l28.36-68.309a1.465,1.465,0,0,1,1.32-.813h16.468a1.465,1.465,0,0,1,1.32.813ZM1861.273,785.2l-8.743,22.667h18.5Z" fill="#1d324f"/>
    <path id="Path_114" data-name="Path 114" d="M1976.649,801.261c0,6.3-1.831,11.486-4.372,16.772l7.929,8.234a1.512,1.512,0,0,1-.1,2.236l-10.57,10.571a1.6,1.6,0,0,1-2.238,0l-7.42-7.623c-6.606,4.777-10.572,7.522-20.94,7.522-19.82,0-36.8-17.179-36.8-37.2a36.4,36.4,0,0,1,36.594-35.882C1962.621,765.887,1976.649,784.082,1976.649,801.261Zm-58.144.2c-.305,11.588,9.048,21.651,20.228,21.651a21.092,21.092,0,0,0,21.753-20.94c0-11.588-8.742-21.142-21.346-21.142C1928.161,781.033,1918.505,790.791,1918.505,801.464Z" fill="#1d324f"/>
    <path id="Path_115" data-name="Path 115" d="M2052.484,766.9a1.44,1.44,0,0,1,1.524,1.524c0,7.319.2,38.526-.2,46.454-.508,8.945-3.253,24.192-30.392,24.091-27.141.1-29.886-15.146-30.291-24.091-.407-7.928-.2-39.135-.2-46.454a1.439,1.439,0,0,1,1.524-1.524l14.84-.1a1.442,1.442,0,0,1,1.526,1.525v38.728c0,4.879.1,16.365,12.6,16.365s12.706-11.486,12.706-16.365V768.327a1.44,1.44,0,0,1,1.524-1.525Z" fill="#1d324f"/>
    <path id="Path_116" data-name="Path 116" d="M2139.905,835.517a1.732,1.732,0,0,1-1.727,2.439h-14.435a1.465,1.465,0,0,1-1.321-.812l-6.608-15.451h-27.648l-6.608,15.451a1.464,1.464,0,0,1-1.32.812H2065.8a1.732,1.732,0,0,1-1.727-2.439l28.36-68.309a1.468,1.468,0,0,1,1.322-.813h16.466a1.47,1.47,0,0,1,1.323.813ZM2101.788,785.2l-8.743,22.667h18.5Z" fill="#1d324f"/>
    <path id="Path_117" data-name="Path 117" d="M1826.991,848.349h5.689q5.5,0,8.17,1.363a10.651,10.651,0,0,1,4.4,4.432,15.545,15.545,0,0,1,.761,12.525,11.082,11.082,0,0,1-2.673,4.056,9.432,9.432,0,0,1-3.692,2.229,26.3,26.3,0,0,1-6.886.617h-5.773Zm4.767,4.629V868.89h2.229a11.173,11.173,0,0,0,4.775-.755,5.737,5.737,0,0,0,2.427-2.54,9.343,9.343,0,0,0,.943-4.395,8.361,8.361,0,0,0-2.246-6.231q-2.026-1.99-6.5-1.991Z" fill="#d52027"/>
    <path id="Path_118" data-name="Path 118" d="M1871.143,865.6H1856.1a5.012,5.012,0,0,0,1.742,3.163,5.461,5.461,0,0,0,3.61,1.175,6.235,6.235,0,0,0,4.508-1.835l3.944,1.852a9.289,9.289,0,0,1-3.533,3.094,11.019,11.019,0,0,1-4.885,1,9.657,9.657,0,0,1-7.151-2.769,9.425,9.425,0,0,1-2.76-6.936,9.741,9.741,0,0,1,2.751-7.09,9.245,9.245,0,0,1,6.9-2.82,9.587,9.587,0,0,1,7.168,2.82,10.2,10.2,0,0,1,2.762,7.45Zm-4.682-3.687a4.7,4.7,0,0,0-1.829-2.537,5.305,5.305,0,0,0-3.169-.978,5.6,5.6,0,0,0-3.435,1.1,6.123,6.123,0,0,0-1.719,2.417Z" fill="#d52027"/>
    <path id="Path_119" data-name="Path 119" d="M1874.339,854.916h4.768l4.714,11.008,4.7-11.008h4.745l-7.937,18.655H1882.3Z" fill="#d52027"/>
    <path id="Path_120" data-name="Path 120" d="M1916.1,865.6H1901.06a5,5,0,0,0,1.74,3.163,5.463,5.463,0,0,0,3.61,1.175,6.243,6.243,0,0,0,4.51-1.835l3.944,1.852a9.3,9.3,0,0,1-3.533,3.094,11.029,11.029,0,0,1-4.887,1,9.653,9.653,0,0,1-7.149-2.769,9.418,9.418,0,0,1-2.762-6.936,9.743,9.743,0,0,1,2.753-7.09,9.242,9.242,0,0,1,6.9-2.82,9.59,9.59,0,0,1,7.168,2.82,10.2,10.2,0,0,1,2.759,7.45Zm-4.681-3.687a4.684,4.684,0,0,0-1.829-2.537,5.3,5.3,0,0,0-3.169-.978,5.609,5.609,0,0,0-3.435,1.1,6.139,6.139,0,0,0-1.717,2.417Z" fill="#d52027"/>
    <path id="Path_121" data-name="Path 121" d="M1920.777,847.714h4.682v25.857h-4.682Z" fill="#d52027"/>
    <path id="Path_122" data-name="Path 122" d="M1939.877,854.436a9.893,9.893,0,0,1,4.964,1.32,9.683,9.683,0,0,1,4.93,8.47,9.8,9.8,0,0,1-1.312,4.939,9.479,9.479,0,0,1-3.576,3.591,9.862,9.862,0,0,1-4.989,1.3,9.307,9.307,0,0,1-6.85-2.855,9.888,9.888,0,0,1,.369-14.223A9.363,9.363,0,0,1,1939.877,854.436Zm.077,4.406a4.821,4.821,0,0,0-3.633,1.518,5.39,5.39,0,0,0-1.452,3.883,5.489,5.489,0,0,0,1.435,3.944,4.8,4.8,0,0,0,3.633,1.509,4.852,4.852,0,0,0,3.658-1.526,6.014,6.014,0,0,0,.025-7.827A4.844,4.844,0,0,0,1939.954,858.842Z" fill="#d52027"/>
    <path id="Path_123" data-name="Path 123" d="M1959.645,854.916v2.057a8.8,8.8,0,0,1,2.745-1.9,7.883,7.883,0,0,1,3.153-.634,8.146,8.146,0,0,1,6.208,2.76,10.02,10.02,0,0,1,2.554,7.081,9.772,9.772,0,0,1-2.641,6.971,8.316,8.316,0,0,1-6.258,2.8,7.781,7.781,0,0,1-3-.574,9.157,9.157,0,0,1-2.762-1.878v8.8H1955V854.916Zm4.921,3.84a4.885,4.885,0,0,0-3.668,1.509,5.434,5.434,0,0,0-1.459,3.943,5.594,5.594,0,0,0,1.459,4.022,4.84,4.84,0,0,0,3.668,1.534,4.761,4.761,0,0,0,3.61-1.559,5.583,5.583,0,0,0,1.466-3.979,5.521,5.521,0,0,0-1.441-3.935A4.773,4.773,0,0,0,1964.566,858.756Z" fill="#d52027"/>
    <path id="Path_124" data-name="Path 124" d="M1979.551,854.916h4.681v2.143a7.96,7.96,0,0,1,2.669-1.971,7.775,7.775,0,0,1,3.2-.652,5.943,5.943,0,0,1,3.156.857,6.181,6.181,0,0,1,2.265,2.5,7.552,7.552,0,0,1,2.737-2.5,7.454,7.454,0,0,1,3.543-.857,6.573,6.573,0,0,1,3.5.925,5.369,5.369,0,0,1,2.17,2.418,12.954,12.954,0,0,1,.659,4.853v10.939h-4.714v-9.465q0-3.171-.79-4.3a2.7,2.7,0,0,0-2.365-1.124,3.581,3.581,0,0,0-2.152.687,4.047,4.047,0,0,0-1.415,1.895,11.792,11.792,0,0,0-.462,3.883v8.419h-4.716v-9.036a12.742,12.742,0,0,0-.369-3.627,3.306,3.306,0,0,0-1.108-1.672,2.926,2.926,0,0,0-1.789-.549,3.518,3.518,0,0,0-2.122.7,4.14,4.14,0,0,0-1.426,1.945,12.008,12.008,0,0,0-.473,3.944v8.3h-4.681Z" fill="#d52027"/>
    <path id="Path_125" data-name="Path 125" d="M2032.686,865.6h-15.037a5,5,0,0,0,1.74,3.163,5.463,5.463,0,0,0,3.61,1.175,6.243,6.243,0,0,0,4.51-1.835l3.944,1.852a9.3,9.3,0,0,1-3.533,3.094,11.03,11.03,0,0,1-4.888,1,9.652,9.652,0,0,1-7.148-2.769,9.418,9.418,0,0,1-2.762-6.936,9.743,9.743,0,0,1,2.753-7.09,9.242,9.242,0,0,1,6.9-2.82,9.59,9.59,0,0,1,7.168,2.82,10.2,10.2,0,0,1,2.759,7.45Zm-4.681-3.687a4.684,4.684,0,0,0-1.829-2.537,5.3,5.3,0,0,0-3.169-.978,5.612,5.612,0,0,0-3.436,1.1,6.138,6.138,0,0,0-1.716,2.417Z" fill="#d52027"/>
    <path id="Path_126" data-name="Path 126" d="M2037.881,854.916h4.68v1.912a11.215,11.215,0,0,1,2.886-1.868,6.983,6.983,0,0,1,2.645-.524,6.4,6.4,0,0,1,4.708,1.937,6.651,6.651,0,0,1,1.627,4.869v12.329H2049.8V865.4a20.745,20.745,0,0,0-.3-4.436,3.038,3.038,0,0,0-1.043-1.67,2.924,2.924,0,0,0-1.84-.574,3.446,3.446,0,0,0-2.437.951,5.085,5.085,0,0,0-1.412,2.629,21.392,21.392,0,0,0-.2,3.784v7.485h-4.68Z" fill="#d52027"/>
    <path id="Path_127" data-name="Path 127" d="M2060.923,848.039h4.682v6.877h2.777v4.029H2065.6v14.626h-4.682V858.945h-2.4v-4.029h2.4Z" fill="#d52027"/>
    <path id="Path_128" data-name="Path 128" d="M2083.711,857.522l-2.9,2.9a4.9,4.9,0,0,0-3.207-1.75,2.017,2.017,0,0,0-1.235.335,1,1,0,0,0-.445.831,1.021,1.021,0,0,0,.282.7,5.249,5.249,0,0,0,1.4.866l1.715.857a10.1,10.1,0,0,1,3.72,2.727,5.675,5.675,0,0,1-.814,7.407,6.99,6.99,0,0,1-4.9,1.663,7.781,7.781,0,0,1-6.515-3.19l2.88-3.138a6.617,6.617,0,0,0,1.929,1.553,4.274,4.274,0,0,0,1.964.591,2.332,2.332,0,0,0,1.49-.446,1.29,1.29,0,0,0,.566-1.028q0-1.08-2.039-2.11l-1.579-.788q-4.527-2.28-4.525-5.71A4.95,4.95,0,0,1,2073.21,856a6.186,6.186,0,0,1,4.361-1.568,7.574,7.574,0,0,1,6.14,3.086Z" fill="#d52027"/>
  </g>
</svg>
