<svg xmlns="http://www.w3.org/2000/svg" width="172.443" height="161.94" viewBox="0 0 172.443 161.94">
  <g id="Group_158" data-name="Group 158" transform="translate(-1380.547 -4196)">
    <path id="Path_123" data-name="Path 123" d="M881.41,753.2" transform="translate(577 3562.29)" fill="#fff" stroke="#313a4d" stroke-linejoin="round" stroke-width="8" fill-rule="evenodd"/>
    <rect id="Rectangle_52" data-name="Rectangle 52" width="99" height="18" transform="translate(1386.204 4339.555) rotate(-45)" fill="#fff" stroke="#313a4d" stroke-linejoin="round" stroke-width="8"/>
    <circle id="Ellipse_27" data-name="Ellipse 27" cx="45" cy="45" r="45" transform="translate(1443.02 4205.47)" fill="#eb2233" stroke="#313a4d" stroke-linejoin="round" stroke-width="8"/>
    <path id="Path_124" data-name="Path 124" d="M930.11,707.27a27,27,0,1,1,0-38.18,28.552,28.552,0,0,1,2,2.18,26.47,26.47,0,0,1,4.51,8.21A27,27,0,0,1,930.11,707.27Z" transform="translate(577 3562.29)" fill="#fff" stroke="#313a4d" stroke-linejoin="round" stroke-width="8" fill-rule="evenodd"/>
    <path id="Path_125" data-name="Path 125" d="M964.44,651.62l-1.06,1.06-26.8,26.8L912.5,703.56l-12.72-12.73-11.66,11.66a27,27,0,0,1-3.6-9.13l15.26-15.25,12.72,12.72,19.57-19.56,26-26Z" transform="translate(577 3562.29)" fill="#fff" stroke="#313a4d" stroke-linejoin="round" stroke-width="4"/>
    <path id="Path_126" data-name="Path 126" d="M838.17,553.08h31.82V584.9h-10.6V563.69H838.17Z" transform="translate(681 3644.92)" fill="#eb2233" stroke="#313a4d" stroke-linejoin="round" stroke-width="4"/>
  </g>
</svg>
