<svg xmlns="http://www.w3.org/2000/svg" width="85.32" height="328.245" viewBox="0 0 85.32 328.245">
  <g id="ди" transform="translate(-5060.412 1790.27)">
    <path id="Path_184" data-name="Path 184" d="M31.289-85.732H17.446V-70H-17.4V-85.688H-31.685l-1.1,27.554h4.526q3.56,2.373,5.735,8.152t3.1,16.589l1.978,27.378H26.1V-58.135h6.812Zm-42.1,27.6H10.723v40.21H-2.9l-1.187-16Q-5.405-49.478-10.811-58.135Z" transform="translate(5059 -1496) rotate(90)" fill="none" stroke="#000" stroke-width="2"/>
    <path id="Path_183" data-name="Path 183" d="M6.592-47.549H21.445V0H6.592V-27.686L-6.46,0h-14.9V-47.549h14.9v27.6Z" transform="translate(5129 -1559) rotate(-90)" fill="none" stroke="#000" stroke-width="2"/>
    <path id="Path_182" data-name="Path 182" d="M5.515-33.179q0-4.658-4.922-4.658-5.669,0-5.669,4.087h-14.81A12.636,12.636,0,0,1-14.458-44.3q5.427-4.087,14.084-4.087,9.624,0,15.161,3.625a11.535,11.535,0,0,1,5.537,10.217,9.76,9.76,0,0,1-1.912,5.823,13.171,13.171,0,0,1-5.383,4.241q8.13,2.856,8.13,11.03,0,6.5-5.867,10.415T-.374.879q-8.921,0-14.59-4.065a12.732,12.732,0,0,1-5.669-10.876h14.81a3.972,3.972,0,0,0,1.494,3.1q1.494,1.3,4.966,1.3A6.092,6.092,0,0,0,4.922-11.03a4.839,4.839,0,0,0,1.472-3.735q0-5.1-5.669-5.273H-5.911v-8.613H.11Q5.515-28.652,5.515-33.179Z" transform="translate(5129 -1612) rotate(-90)" fill="none" stroke="#000" stroke-width="2"/>
    <path id="Path_181" data-name="Path 181" d="M7.053,0A16.722,16.722,0,0,1,5.647-4.263Q1.56.879-5.779.879A16.87,16.87,0,0,1-17.2-3.186a12.939,12.939,0,0,1-4.7-10.217q0-7.734,5.713-11.689T.417-29.048h4.57v-2.517q0-6.579-5.669-6.579-5.273,0-5.273,5.211h-14.81A13.276,13.276,0,0,1-14.9-44.126q5.867-4.3,14.963-4.3t14.37,4.438q5.273,4.438,5.405,12.173v21.05q.088,6.548,2.021,10.02V0ZM-2.219-9.668a8.261,8.261,0,0,0,4.592-1.187,7.436,7.436,0,0,0,2.615-2.681v-7.6H.681q-7.734,0-7.734,6.943A4.239,4.239,0,0,0-5.691-10.92,4.93,4.93,0,0,0-2.219-9.668Z" transform="translate(5129 -1661) rotate(-90)" fill="none" stroke="#000" stroke-width="2"/>
    <path id="Path_179" data-name="Path 179" d="M6.592-47.549H21.445V0H6.592V-27.686L-6.46,0h-14.9V-47.549h14.9v27.6ZM16.655-67.588a12.141,12.141,0,0,1-4.438,9.756Q7.778-54.1.4-54.1t-11.821-3.735a12.141,12.141,0,0,1-4.438-9.756H-5.8a5.225,5.225,0,0,0,1.648,4.109A6.585,6.585,0,0,0,.4-62.007a6.544,6.544,0,0,0,4.5-1.428,5.27,5.27,0,0,0,1.6-4.153Z" transform="translate(5129 -1715) rotate(-90)" fill="none" stroke="#000" stroke-width="2"/>
    <path id="Path_180" data-name="Path 180" d="M21.27,0H6.416V-17.578H-6.548V0h-14.81V-47.549h14.81V-29H6.416V-47.549H21.27Z" transform="translate(5129 -1768) rotate(-90)" fill="none" stroke="#000" stroke-width="2"/>
  </g>
</svg>
