<svg xmlns="http://www.w3.org/2000/svg" width="66.742" height="828.092" viewBox="0 0 66.742 828.092">
  <g id="ADV" transform="translate(-368.637 -130.407)">
    <path id="Path_178" data-name="Path 178" d="M10.525-11.953H-10.613L-14.3,0H-30.784L-7.317-63.984h14.5L30.828,0H14.26ZM-6.921-23.862H6.833l-6.9-22.192Z" transform="translate(434 927) rotate(-90)" fill="none" stroke="#000" stroke-width="1"/>
    <path id="Path_177" data-name="Path 177" d="M-24.258,0V-63.984h20.61A30.318,30.318,0,0,1,11.6-60.139,27.028,27.028,0,0,1,22.17-49.285a32.772,32.772,0,0,1,3.845,15.71v2.944A32.961,32.961,0,0,1,22.3-14.875a27.145,27.145,0,0,1-10.459,10.9A29.651,29.651,0,0,1-3.208,0ZM-8.833-52.075v40.21h5.361q6.636,0,10.2-4.724t3.56-14.041V-33.4q0-9.272-3.56-13.975t-10.371-4.7Z" transform="translate(434 864) rotate(-90)" fill="none" stroke="#000" stroke-width="1"/>
    <path id="Path_176" data-name="Path 176" d="M-.066-17.4,12.678-63.984H29.9L8.372,0H-8.5L-29.861-63.984h17.095Z" transform="translate(434 802) rotate(-90)" fill="none" stroke="#000" stroke-width="1"/>
    <path id="Path_175" data-name="Path 175" d="M19.336-27.158H-4.922v15.293H23.73V0H-20.347V-63.984H23.818v11.909H-4.922v13.491H19.336Z" transform="translate(434 743) rotate(-90)" fill="none" stroke="#000" stroke-width="1"/>
    <path id="Path_174" data-name="Path 174" d="M-.747-22.632H-9.1V0H-24.521V-63.984H.659q11.382,0,17.8,5.048t6.416,14.267a20.774,20.774,0,0,1-2.7,11.063,19.183,19.183,0,0,1-8.459,7.112L27.07-.66V0H10.547ZM-9.1-34.5H.659q4.395,0,6.614-2.313a8.941,8.941,0,0,0,2.219-6.454,9.046,9.046,0,0,0-2.241-6.5Q5.01-52.119.659-52.119H-9.1Z" transform="translate(434 685) rotate(-90)" fill="none" stroke="#000" stroke-width="1"/>
    <path id="Path_172" data-name="Path 172" d="M26.7-52.075H7.493V0H-7.932V-52.075H-26.785V-63.984H26.7Z" transform="translate(434 625) rotate(-90)" fill="none" stroke="#000" stroke-width="1"/>
    <path id="Path_173" data-name="Path 173" d="M7.69,0H-7.69V-63.984H7.69Z" transform="translate(434 579) rotate(-90)" fill="none" stroke="#000" stroke-width="1"/>
    <path id="Path_171" data-name="Path 171" d="M9.668-17.007a6.338,6.338,0,0,0-2.4-5.273q-2.4-1.89-8.416-3.911A80.736,80.736,0,0,1-10.986-30.1Q-23.423-36.211-23.423-46.89a15.053,15.053,0,0,1,3.1-9.382A20.039,20.039,0,0,1-11.558-62.6,34.117,34.117,0,0,1,1.187-64.863,29.843,29.843,0,0,1,13.557-62.4a19.586,19.586,0,0,1,8.5,7.009A18.3,18.3,0,0,1,25.093-45H9.712a7.735,7.735,0,0,0-2.4-6.064A9.335,9.335,0,0,0,.835-53.218a10.528,10.528,0,0,0-6.526,1.824,5.594,5.594,0,0,0-2.4,4.636q0,2.461,2.637,4.46t9.272,4.131a56.8,56.8,0,0,1,10.9,4.592Q25.093-27.6,25.093-17.095A15.623,15.623,0,0,1,18.765-3.911Q12.437.879,1.406.879A34.439,34.439,0,0,1-12.678-1.912,21.235,21.235,0,0,1-22.17-9.558a19.924,19.924,0,0,1-3.186-11.184H-9.888q0,5.142,2.659,7.581t8.635,2.439a9.927,9.927,0,0,0,6.042-1.648A5.439,5.439,0,0,0,9.668-17.007Z" transform="translate(434 533) rotate(-90)" fill="none" stroke="#000" stroke-width="1"/>
    <path id="Path_170" data-name="Path 170" d="M19.336-27.158H-4.922v15.293H23.73V0H-20.347V-63.984H23.818v11.909H-4.922v13.491H19.336Z" transform="translate(434 477) rotate(-90)" fill="none" stroke="#000" stroke-width="1"/>
    <path id="Path_165" data-name="Path 165" d="M-14.348-63.984-.066-19.468,14.172-63.984h20.3V0H19.006V-14.941L20.5-45.527,5.032,0h-10.2L-20.676-45.571l1.494,30.63V0H-34.607V-63.984Z" transform="translate(434 408) rotate(-90)" fill="none" stroke="#000" stroke-width="1"/>
    <path id="Path_166" data-name="Path 166" d="M19.336-27.158H-4.922v15.293H23.73V0H-20.347V-63.984H23.818v11.909H-4.922v13.491H19.336Z" transform="translate(434 340) rotate(-90)" fill="none" stroke="#000" stroke-width="1"/>
    <path id="Path_167" data-name="Path 167" d="M26.675,0H11.338L-11.338-39.814V0H-26.763V-63.984h15.425L11.294-24.17V-63.984H26.675Z" transform="translate(434 279) rotate(-90)" fill="none" stroke="#000" stroke-width="1"/>
    <path id="Path_168" data-name="Path 168" d="M26.7-52.075H7.493V0H-7.932V-52.075H-26.785V-63.984H26.7Z" transform="translate(434 216) rotate(-90)" fill="none" stroke="#000" stroke-width="1"/>
    <path id="Path_169" data-name="Path 169" d="M9.668-17.007a6.338,6.338,0,0,0-2.4-5.273q-2.4-1.89-8.416-3.911A80.736,80.736,0,0,1-10.986-30.1Q-23.423-36.211-23.423-46.89a15.053,15.053,0,0,1,3.1-9.382A20.039,20.039,0,0,1-11.558-62.6,34.117,34.117,0,0,1,1.187-64.863,29.843,29.843,0,0,1,13.557-62.4a19.586,19.586,0,0,1,8.5,7.009A18.3,18.3,0,0,1,25.093-45H9.712a7.735,7.735,0,0,0-2.4-6.064A9.335,9.335,0,0,0,.835-53.218a10.528,10.528,0,0,0-6.526,1.824,5.594,5.594,0,0,0-2.4,4.636q0,2.461,2.637,4.46t9.272,4.131a56.8,56.8,0,0,1,10.9,4.592Q25.093-27.6,25.093-17.095A15.623,15.623,0,0,1,18.765-3.911Q12.437.879,1.406.879A34.439,34.439,0,0,1-12.678-1.912,21.235,21.235,0,0,1-22.17-9.558a19.924,19.924,0,0,1-3.186-11.184H-9.888q0,5.142,2.659,7.581t8.635,2.439a9.927,9.927,0,0,0,6.042-1.648A5.439,5.439,0,0,0,9.668-17.007Z" transform="translate(434 156) rotate(-90)" fill="none" stroke="#000" stroke-width="1"/>
  </g>
</svg>
