<svg xmlns="http://www.w3.org/2000/svg" width="66.742" height="421.285" viewBox="0 0 66.742 421.285">
  <g id="business-website" transform="translate(-521.637 -483.407)">
    <path id="Path_172" data-name="Path 172" d="M-24.192,0V-63.984H-1.208q12.349,0,18.787,4.526t6.438,13.14a15.224,15.224,0,0,1-2.285,8.481,13.316,13.316,0,0,1-6.724,5.186,13.485,13.485,0,0,1,7.69,4.922,14.311,14.311,0,0,1,2.681,8.789q0,9.4-5.955,14.128T1.78,0ZM-8.767-27.2v15.337H1.34a9.613,9.613,0,0,0,6.416-1.912A6.69,6.69,0,0,0,10-19.16q0-8-7.954-8.042Zm0-10.107H-.725q5.054-.044,7.207-1.851a6.568,6.568,0,0,0,2.153-5.333q0-4.055-2.329-5.84t-7.515-1.785H-8.767Z" transform="translate(587 880) rotate(-90)" fill="none" stroke="#000" stroke-width="1"/>
    <path id="Path_171" data-name="Path 171" d="M25.115-63.984V-22.1A24.069,24.069,0,0,1,22.083-9.778a19.643,19.643,0,0,1-8.7,7.932A30.653,30.653,0,0,1-.022.879q-11.689,0-18.413-6.064T-25.291-21.8V-63.984H-9.778v42.5q.264,10.5,9.756,10.5,4.79,0,7.251-2.637T9.69-22.192V-63.984Z" transform="translate(587 821) rotate(-90)" fill="none" stroke="#000" stroke-width="1"/>
    <path id="Path_170" data-name="Path 170" d="M9.668-17.007a6.338,6.338,0,0,0-2.4-5.273q-2.4-1.89-8.416-3.911A80.736,80.736,0,0,1-10.986-30.1Q-23.423-36.211-23.423-46.89a15.053,15.053,0,0,1,3.1-9.382A20.039,20.039,0,0,1-11.558-62.6,34.117,34.117,0,0,1,1.187-64.863,29.843,29.843,0,0,1,13.557-62.4a19.586,19.586,0,0,1,8.5,7.009A18.3,18.3,0,0,1,25.093-45H9.712a7.735,7.735,0,0,0-2.4-6.064A9.335,9.335,0,0,0,.835-53.218a10.528,10.528,0,0,0-6.526,1.824,5.594,5.594,0,0,0-2.4,4.636q0,2.461,2.637,4.46t9.272,4.131a56.8,56.8,0,0,1,10.9,4.592Q25.093-27.6,25.093-17.095A15.623,15.623,0,0,1,18.765-3.911Q12.437.879,1.406.879A34.439,34.439,0,0,1-12.678-1.912,21.235,21.235,0,0,1-22.17-9.558a19.924,19.924,0,0,1-3.186-11.184H-9.888q0,5.142,2.659,7.581t8.635,2.439a9.927,9.927,0,0,0,6.042-1.648A5.439,5.439,0,0,0,9.668-17.007Z" transform="translate(587 763) rotate(-90)" fill="none" stroke="#000" stroke-width="1"/>
    <path id="Path_169" data-name="Path 169" d="M7.69,0H-7.69V-63.984H7.69Z" transform="translate(587 721) rotate(-90)" fill="none" stroke="#000" stroke-width="1"/>
    <path id="Path_167" data-name="Path 167" d="M26.675,0H11.338L-11.338-39.814V0H-26.763V-63.984h15.425L11.294-24.17V-63.984H26.675Z" transform="translate(587 675) rotate(-90)" fill="none" stroke="#000" stroke-width="1"/>
    <path id="Path_168" data-name="Path 168" d="M19.336-27.158H-4.922v15.293H23.73V0H-20.347V-63.984H23.818v11.909H-4.922v13.491H19.336Z" transform="translate(587 618) rotate(-90)" fill="none" stroke="#000" stroke-width="1"/>
    <path id="Path_165" data-name="Path 165" d="M9.668-17.007a6.338,6.338,0,0,0-2.4-5.273q-2.4-1.89-8.416-3.911A80.736,80.736,0,0,1-10.986-30.1Q-23.423-36.211-23.423-46.89a15.053,15.053,0,0,1,3.1-9.382A20.039,20.039,0,0,1-11.558-62.6,34.117,34.117,0,0,1,1.187-64.863,29.843,29.843,0,0,1,13.557-62.4a19.586,19.586,0,0,1,8.5,7.009A18.3,18.3,0,0,1,25.093-45H9.712a7.735,7.735,0,0,0-2.4-6.064A9.335,9.335,0,0,0,.835-53.218a10.528,10.528,0,0,0-6.526,1.824,5.594,5.594,0,0,0-2.4,4.636q0,2.461,2.637,4.46t9.272,4.131a56.8,56.8,0,0,1,10.9,4.592Q25.093-27.6,25.093-17.095A15.623,15.623,0,0,1,18.765-3.911Q12.437.879,1.406.879A34.439,34.439,0,0,1-12.678-1.912,21.235,21.235,0,0,1-22.17-9.558a19.924,19.924,0,0,1-3.186-11.184H-9.888q0,5.142,2.659,7.581t8.635,2.439a9.927,9.927,0,0,0,6.042-1.648A5.439,5.439,0,0,0,9.668-17.007Z" transform="translate(587 565) rotate(-90)" fill="none" stroke="#000" stroke-width="1"/>
    <path id="Path_166" data-name="Path 166" d="M9.668-17.007a6.338,6.338,0,0,0-2.4-5.273q-2.4-1.89-8.416-3.911A80.736,80.736,0,0,1-10.986-30.1Q-23.423-36.211-23.423-46.89a15.053,15.053,0,0,1,3.1-9.382A20.039,20.039,0,0,1-11.558-62.6,34.117,34.117,0,0,1,1.187-64.863,29.843,29.843,0,0,1,13.557-62.4a19.586,19.586,0,0,1,8.5,7.009A18.3,18.3,0,0,1,25.093-45H9.712a7.735,7.735,0,0,0-2.4-6.064A9.335,9.335,0,0,0,.835-53.218a10.528,10.528,0,0,0-6.526,1.824,5.594,5.594,0,0,0-2.4,4.636q0,2.461,2.637,4.46t9.272,4.131a56.8,56.8,0,0,1,10.9,4.592Q25.093-27.6,25.093-17.095A15.623,15.623,0,0,1,18.765-3.911Q12.437.879,1.406.879A34.439,34.439,0,0,1-12.678-1.912,21.235,21.235,0,0,1-22.17-9.558a19.924,19.924,0,0,1-3.186-11.184H-9.888q0,5.142,2.659,7.581t8.635,2.439a9.927,9.927,0,0,0,6.042-1.648A5.439,5.439,0,0,0,9.668-17.007Z" transform="translate(587 509) rotate(-90)" fill="none" stroke="#000" stroke-width="1"/>
  </g>
</svg>
