<?xml version="1.0" standalone="no"?>
<!DOCTYPE svg PUBLIC "-//W3C//DTD SVG 20010904//EN"
 "http://www.w3.org/TR/2001/REC-SVG-20010904/DTD/svg10.dtd">
<svg version="1.0" xmlns="http://www.w3.org/2000/svg"
 width="330.000000pt" height="556.000000pt" viewBox="0 0 330.000000 556.000000"
 preserveAspectRatio="xMidYMid meet">
<metadata>
Created by potrace 1.15, written by Peter Selinger 2001-2017
</metadata>
<g transform="translate(0.000000,556.000000) scale(0.100000,-0.100000)"
fill="#000000" stroke="none">
<path d="M300 5310 l0 -230 330 0 330 0 0 230 0 230 -70 0 -70 0 0 -145 0
-145 -65 0 -65 0 0 120 0 120 -65 0 -65 0 0 -120 0 -120 -60 0 -60 0 0 145 0
145 -70 0 -70 0 0 -230z m120 65 l0 -145 75 0 75 0 0 125 0 125 50 0 50 0 0
-125 0 -125 85 0 85 0 0 145 0 145 50 0 50 0 0 -210 0 -210 -310 0 -310 0 0
210 0 210 50 0 50 0 0 -145z"/>
<path d="M300 4715 l0 -275 70 0 70 0 0 95 0 95 260 0 260 0 0 85 0 85 -260 0
-260 0 0 95 0 95 -70 0 -70 0 0 -275z m120 165 l0 -100 260 0 260 0 0 -65 0
-65 -260 0 -260 0 0 -95 0 -95 -50 0 -50 0 0 260 0 260 50 0 50 0 0 -100z"/>
<path d="M1350 4540 l0 -230 330 0 330 0 0 230 0 230 -70 0 -70 0 0 -140 0
-140 -65 0 -65 0 0 120 0 120 -65 0 -65 0 0 -120 0 -120 -60 0 -60 0 0 140 0
140 -70 0 -70 0 0 -230z m120 75 l0 -145 75 0 75 0 0 120 0 120 50 0 50 0 0
-120 0 -120 85 0 85 0 0 145 0 145 50 0 50 0 0 -215 0 -215 -310 0 -310 0 0
215 0 215 50 0 50 0 0 -145z"/>
<path d="M620 4342 l-315 -117 -3 -81 -3 -80 320 -117 c176 -64 324 -117 330
-117 7 0 11 32 11 90 l0 90 -60 17 -61 16 3 101 3 100 55 17 55 16 3 92 c2 69
0 91 -10 90 -7 0 -155 -53 -328 -117z m320 25 l0 -74 -60 -18 -60 -18 0 -113
0 -114 60 -17 60 -18 0 -72 0 -72 -87 32 c-49 17 -187 68 -308 112 l-220 81
-3 66 -3 66 43 16 c49 19 572 214 576 215 1 1 2 -32 2 -72z"/>
<path d="M585 4184 c-60 -19 -111 -37 -113 -39 -6 -5 -9 -4 136 -49 l112 -34
0 79 c0 57 -4 79 -12 78 -7 0 -62 -16 -123 -35z"/>
<path d="M1350 3955 l0 -275 70 0 70 0 0 95 0 95 260 0 260 0 0 85 0 85 -260
0 -260 0 0 95 0 95 -70 0 -70 0 0 -275z m120 160 l0 -95 260 0 260 0 0 -70 0
-70 -260 0 -260 0 0 -95 0 -95 -50 0 -50 0 0 260 0 260 50 0 50 0 0 -95z"/>
<path d="M820 3725 c-69 -36 -127 -65 -130 -65 -3 0 -13 13 -23 29 -44 74
-204 96 -280 39 -19 -15 -46 -49 -58 -75 -22 -44 -24 -63 -27 -225 l-4 -178
331 0 331 0 0 85 0 85 -115 0 -115 0 0 35 c0 35 1 36 115 92 l115 58 0 92 c0
51 -3 93 -7 93 -5 -1 -64 -30 -133 -65z m120 -35 l0 -70 -115 -57 -115 -58 0
-47 0 -48 115 0 115 0 0 -70 0 -70 -310 0 -310 0 0 148 c0 157 7 200 43 253
32 48 77 71 140 71 69 1 122 -25 154 -74 l26 -38 121 64 c66 35 124 65 129 65
4 1 7 -31 7 -69z"/>
<path d="M464 3598 c-31 -15 -44 -50 -44 -123 l0 -65 95 0 95 0 0 69 c0 38 -3
77 -6 86 -15 37 -94 56 -140 33z m96 -18 c23 -12 40 -61 40 -116 l0 -44 -80 0
-80 0 0 62 c0 50 4 66 22 85 23 24 66 30 98 13z"/>
<path d="M1350 3495 l0 -85 330 0 330 0 0 85 0 85 -330 0 -330 0 0 -85z m640
5 l0 -70 -310 0 -310 0 0 70 0 70 310 0 310 0 0 -70z"/>
<path d="M1464 3281 c-76 -35 -118 -117 -117 -231 0 -86 17 -142 55 -186 41
-46 77 -64 130 -64 92 1 153 62 209 209 17 46 40 92 50 102 42 42 89 10 89
-62 0 -56 -21 -86 -65 -95 l-35 -6 0 -85 0 -86 48 7 c97 13 162 90 183 215 30
190 -61 318 -212 298 -84 -11 -149 -86 -193 -224 -31 -95 -77 -128 -110 -81
-24 34 -20 90 7 116 13 12 31 22 40 22 15 0 17 12 17 85 l0 85 -27 0 c-16 0
-47 -9 -69 -19z m76 -66 c0 -60 -2 -66 -24 -75 -40 -15 -59 -54 -53 -106 5
-51 19 -70 58 -79 40 -10 66 20 109 128 44 110 66 142 118 174 80 49 173 21
222 -67 48 -86 28 -260 -38 -333 -22 -25 -86 -57 -112 -57 -19 0 -21 5 -18 67
3 66 3 67 35 75 40 10 63 50 63 108 0 74 -39 110 -97 89 -35 -12 -44 -26 -83
-127 -54 -141 -106 -192 -194 -192 -40 0 -51 5 -90 43 -70 67 -92 169 -61 275
18 60 55 108 99 127 61 26 66 22 66 -50z"/>
<path d="M493 3132 c-131 -42 -198 -136 -198 -272 1 -181 125 -284 340 -284
110 1 179 23 241 77 62 55 88 115 89 207 0 139 -74 237 -206 274 -72 21 -199
19 -266 -2z m316 -37 c67 -37 107 -85 128 -154 39 -134 -22 -265 -149 -321
-92 -40 -249 -36 -338 10 -152 78 -186 294 -66 414 67 67 128 87 261 83 100
-2 115 -5 164 -32z"/>
<path d="M484 2970 c-22 -11 -47 -32 -55 -46 -20 -38 -17 -98 7 -131 59 -80
322 -84 383 -7 50 64 31 148 -43 184 -61 29 -233 29 -292 0z m285 -19 c44 -23
66 -65 56 -109 -13 -60 -79 -91 -195 -91 -116 0 -182 31 -195 91 -14 62 29
110 115 129 57 13 176 1 219 -20z"/>
<path d="M1773 2690 c-44 -10 -80 -35 -88 -61 -7 -21 -7 -21 -33 4 -40 37 -66
47 -117 47 -61 0 -104 -21 -134 -65 -39 -58 -51 -125 -51 -287 l0 -148 330 0
330 0 0 155 c0 169 -10 238 -43 286 -37 54 -123 85 -194 69z m127 -35 c71 -36
90 -102 90 -302 l0 -153 -311 0 -311 0 3 163 c4 150 6 166 29 211 30 59 75 86
142 86 39 0 54 -6 82 -31 19 -16 38 -40 42 -52 6 -20 9 -17 25 21 32 74 126
100 209 57z"/>
<path d="M1745 2515 c-22 -21 -25 -33 -25 -100 l0 -75 85 0 85 0 0 74 c0 59
-4 78 -21 100 -28 36 -89 37 -124 1z m109 -17 c11 -15 16 -45 16 -85 l0 -63
-65 0 -65 0 0 67 c0 78 16 103 66 103 23 0 38 -7 48 -22z"/>
<path d="M1511 2516 c-32 -18 -39 -38 -40 -113 l-1 -63 86 0 87 0 -6 68 c-7
84 -12 96 -43 111 -32 14 -53 14 -83 -3z m84 -26 c12 -14 20 -41 23 -80 l4
-60 -66 0 -66 0 0 60 c0 47 4 64 20 80 26 26 62 26 85 0z"/>
<path d="M435 2471 c-49 -23 -89 -64 -111 -116 -14 -31 -19 -78 -22 -212 l-4
-173 331 0 331 0 0 85 0 85 -109 0 -109 0 -4 98 c-4 104 -22 155 -70 199 -57
53 -159 68 -233 34z m169 -15 c41 -17 90 -75 105 -125 6 -21 11 -77 11 -125
l0 -86 110 0 110 0 0 -65 0 -65 -310 0 -310 0 0 141 c0 162 10 212 52 263 57
70 153 95 232 62z"/>
<path d="M453 2306 c-25 -22 -28 -31 -31 -105 l-4 -81 101 0 101 0 0 80 c0 73
-3 83 -25 105 -34 35 -102 35 -142 1z m130 -15 c11 -11 19 -39 24 -84 l6 -67
-87 0 -86 0 0 63 c0 53 4 67 23 84 38 36 85 37 120 4z"/>
<path d="M1350 1870 l0 -230 330 0 330 0 0 230 0 230 -70 0 -70 0 0 -145 0
-145 -65 0 -65 0 0 120 0 120 -65 0 -65 0 0 -120 0 -120 -60 0 -60 0 0 145 0
145 -70 0 -70 0 0 -230z m120 65 l0 -145 75 0 75 0 0 125 0 125 50 0 50 0 0
-125 0 -125 85 0 85 0 0 145 0 145 50 0 50 0 0 -210 0 -210 -310 0 -310 0 0
210 0 210 50 0 50 0 0 -145z"/>
<path d="M816 1815 l-119 -63 -42 43 c-82 84 -225 82 -299 -5 -44 -53 -56
-116 -56 -292 l0 -158 330 0 330 0 0 90 0 90 -115 0 -115 0 0 33 c0 31 3 34
115 90 l115 57 0 90 c0 66 -3 90 -12 89 -7 0 -67 -29 -132 -64z m124 -35 l0
-70 -115 -57 -115 -58 0 -47 0 -48 115 0 115 0 0 -70 0 -70 -310 0 -310 0 0
148 c0 182 13 234 69 285 46 42 105 55 169 38 46 -13 98 -52 107 -81 4 -11 12
-20 18 -20 7 0 64 27 127 60 63 33 118 59 123 60 4 0 7 -32 7 -70z"/>
<path d="M459 1687 c-28 -22 -39 -55 -39 -121 l0 -66 95 0 95 0 0 75 c0 67 -3
79 -25 100 -18 19 -35 25 -67 25 -24 0 -50 -6 -59 -13z m115 -26 c11 -12 20
-43 23 -80 l6 -61 -82 0 -81 0 0 60 c0 47 4 64 20 80 27 27 90 27 114 1z"/>
<path d="M1350 1476 l0 -84 48 -10 c26 -6 104 -20 174 -33 70 -13 126 -25 123
-27 -2 -2 -79 -21 -172 -41 l-168 -37 0 -75 0 -74 168 -37 c93 -20 171 -38
173 -40 2 -2 -54 -14 -124 -27 -70 -13 -148 -27 -174 -33 l-48 -10 0 -84 c0
-46 3 -84 8 -84 4 0 151 31 327 68 l320 69 0 89 0 88 -160 37 c-88 21 -158 38
-155 39 3 1 75 18 160 39 l155 37 0 89 0 88 -295 63 c-162 34 -310 65 -327 69
l-33 6 0 -85z m341 -6 c157 -33 288 -60 292 -60 4 0 7 -33 7 -74 l0 -74 -90
-21 c-49 -12 -130 -30 -180 -42 -90 -21 -110 -34 -67 -44 159 -37 324 -75 330
-75 4 0 7 -34 7 -75 0 -41 -3 -75 -7 -75 -10 0 -572 -119 -595 -126 -16 -5
-18 3 -18 63 l0 68 188 34 c192 35 230 45 202 55 -15 6 -376 86 -385 86 -3 0
-5 27 -5 60 0 33 2 60 5 60 9 0 370 80 385 86 28 10 -10 20 -202 55 l-188 34
0 68 c0 60 2 68 18 63 9 -3 146 -32 303 -66z"/>
<path d="M474 1219 c-115 -44 -178 -137 -179 -264 0 -58 5 -80 30 -130 54
-108 147 -155 305 -155 158 0 251 47 305 155 26 51 30 71 29 135 -1 127 -63
216 -182 260 -73 28 -235 27 -308 -1z m300 -16 c71 -23 140 -93 160 -162 20
-68 20 -104 1 -167 -21 -70 -71 -125 -146 -159 -108 -48 -274 -38 -364 23
-121 83 -149 259 -61 375 37 49 116 95 184 107 61 11 164 4 226 -17z"/>
<path d="M539 1081 c-20 -4 -51 -16 -70 -27 -67 -39 -73 -149 -9 -194 64 -46
238 -49 322 -7 88 45 88 157 1 205 -46 25 -177 38 -244 23z m198 -26 c59 -17
82 -40 89 -86 8 -54 -24 -95 -87 -113 -92 -28 -216 -17 -268 22 -52 39 -49
123 6 159 52 34 177 43 260 18z"/>
<path d="M451 576 c-162 -59 -213 -307 -90 -441 22 -23 63 -53 92 -66 45 -21
68 -24 177 -24 114 0 130 2 181 26 104 49 152 126 153 244 0 41 -7 91 -17 121
-29 83 -119 154 -197 154 l-30 0 0 -85 c0 -83 1 -85 24 -85 60 0 102 -78 75
-141 -19 -48 -65 -63 -189 -63 -121 0 -170 17 -190 65 -26 61 17 139 76 139
23 0 24 2 24 85 l0 85 -27 -1 c-16 0 -43 -6 -62 -13z m69 -70 c0 -63 -1 -65
-29 -71 -49 -11 -75 -48 -75 -109 -1 -98 47 -126 216 -126 146 1 191 18 208
80 20 73 -12 142 -70 155 -30 6 -30 8 -30 71 0 58 2 64 20 64 64 0 150 -80
175 -162 40 -136 -7 -258 -122 -315 -49 -23 -73 -28 -159 -31 -143 -6 -202 13
-270 82 -40 41 -54 64 -64 106 -31 130 24 258 130 304 64 28 70 24 70 -48z"/>
</g>
</svg>
