<svg xmlns="http://www.w3.org/2000/svg" width="66.786" height="326.933" viewBox="0 0 66.786 326.933">
  <g id="DES" transform="translate(-342.593 -424.825)">
    <path id="Path_170" data-name="Path 170" d="M-24.258,0V-63.984h20.61A30.318,30.318,0,0,1,11.6-60.139,27.028,27.028,0,0,1,22.17-49.285a32.772,32.772,0,0,1,3.845,15.71v2.944A32.961,32.961,0,0,1,22.3-14.875a27.145,27.145,0,0,1-10.459,10.9A29.651,29.651,0,0,1-3.208,0ZM-8.833-52.075v40.21h5.361q6.636,0,10.2-4.724t3.56-14.041V-33.4q0-9.272-3.56-13.975t-10.371-4.7Z" transform="translate(408 727) rotate(-90)" fill="none" stroke="#000" stroke-width="1"/>
    <path id="Path_169" data-name="Path 169" d="M19.336-27.158H-4.922v15.293H23.73V0H-20.347V-63.984H23.818v11.909H-4.922v13.491H19.336Z" transform="translate(408 669) rotate(-90)" fill="none" stroke="#000" stroke-width="1"/>
    <path id="Path_165" data-name="Path 165" d="M9.668-17.007a6.338,6.338,0,0,0-2.4-5.273q-2.4-1.89-8.416-3.911A80.736,80.736,0,0,1-10.986-30.1Q-23.423-36.211-23.423-46.89a15.053,15.053,0,0,1,3.1-9.382A20.039,20.039,0,0,1-11.558-62.6,34.117,34.117,0,0,1,1.187-64.863,29.843,29.843,0,0,1,13.557-62.4a19.586,19.586,0,0,1,8.5,7.009A18.3,18.3,0,0,1,25.093-45H9.712a7.735,7.735,0,0,0-2.4-6.064A9.335,9.335,0,0,0,.835-53.218a10.528,10.528,0,0,0-6.526,1.824,5.594,5.594,0,0,0-2.4,4.636q0,2.461,2.637,4.46t9.272,4.131a56.8,56.8,0,0,1,10.9,4.592Q25.093-27.6,25.093-17.095A15.623,15.623,0,0,1,18.765-3.911Q12.437.879,1.406.879A34.439,34.439,0,0,1-12.678-1.912,21.235,21.235,0,0,1-22.17-9.558a19.924,19.924,0,0,1-3.186-11.184H-9.888q0,5.142,2.659,7.581t8.635,2.439a9.927,9.927,0,0,0,6.042-1.648A5.439,5.439,0,0,0,9.668-17.007Z" transform="translate(408 612) rotate(-90)" fill="none" stroke="#000" stroke-width="1"/>
    <path id="Path_166" data-name="Path 166" d="M7.69,0H-7.69V-63.984H7.69Z" transform="translate(408 566) rotate(-90)" fill="none" stroke="#000" stroke-width="1"/>
    <path id="Path_167" data-name="Path 167" d="M26.543-7.91q-3.56,3.955-10.415,6.372A44.921,44.921,0,0,1,1.1.879q-12.568,0-20.083-7.69t-8.042-21.4l-.044-5.537a38.184,38.184,0,0,1,3.34-16.5,24.8,24.8,0,0,1,9.558-10.854A27.037,27.037,0,0,1,.22-64.907q11.953,0,18.567,5.471T26.5-43.11H11.646q-.791-5.361-3.428-7.646T.747-53.042A10.064,10.064,0,0,0-8.218-48.12q-3.164,4.922-3.208,14.063v3.867q0,9.58,3.274,14.392T2.153-10.986q6.021,0,8.965-2.681V-23.6H.4V-34.189H26.543Z" transform="translate(408 517) rotate(-90)" fill="none" stroke="#000" stroke-width="1"/>
    <path id="Path_168" data-name="Path 168" d="M26.675,0H11.338L-11.338-39.814V0H-26.763V-63.984h15.425L11.294-24.17V-63.984H26.675Z" transform="translate(408 452) rotate(-90)" fill="none" stroke="#000" stroke-width="1"/>
  </g>
</svg>
