<svg xmlns="http://www.w3.org/2000/svg" width="66.742" height="171.306" viewBox="0 0 66.742 171.306">
  <g id="SEO" transform="translate(-127.637 -551.551)">
    <path id="Path_167" data-name="Path 167" d="M9.668-17.007a6.338,6.338,0,0,0-2.4-5.273q-2.4-1.89-8.416-3.911A80.736,80.736,0,0,1-10.986-30.1Q-23.423-36.211-23.423-46.89a15.053,15.053,0,0,1,3.1-9.382A20.039,20.039,0,0,1-11.558-62.6,34.117,34.117,0,0,1,1.187-64.863,29.843,29.843,0,0,1,13.557-62.4a19.586,19.586,0,0,1,8.5,7.009A18.3,18.3,0,0,1,25.093-45H9.712a7.735,7.735,0,0,0-2.4-6.064A9.335,9.335,0,0,0,.835-53.218a10.528,10.528,0,0,0-6.526,1.824,5.594,5.594,0,0,0-2.4,4.636q0,2.461,2.637,4.46t9.272,4.131a56.8,56.8,0,0,1,10.9,4.592Q25.093-27.6,25.093-17.095A15.623,15.623,0,0,1,18.765-3.911Q12.437.879,1.406.879A34.439,34.439,0,0,1-12.678-1.912,21.235,21.235,0,0,1-22.17-9.558a19.924,19.924,0,0,1-3.186-11.184H-9.888q0,5.142,2.659,7.581t8.635,2.439a9.927,9.927,0,0,0,6.042-1.648A5.439,5.439,0,0,0,9.668-17.007Z" transform="translate(193 697) rotate(-90)" fill="none" stroke="#000" stroke-width="1"/>
    <path id="Path_166" data-name="Path 166" d="M19.336-27.158H-4.922v15.293H23.73V0H-20.347V-63.984H23.818v11.909H-4.922v13.491H19.336Z" transform="translate(193 640) rotate(-90)" fill="none" stroke="#000" stroke-width="1"/>
    <path id="Path_165" data-name="Path 165" d="M27.949-30.674a37.732,37.732,0,0,1-3.472,16.567,25.658,25.658,0,0,1-9.866,11.1A27.471,27.471,0,0,1,.044.879a27.859,27.859,0,0,1-14.5-3.757,25.615,25.615,0,0,1-9.866-10.745,36.646,36.646,0,0,1-3.713-16.04v-3.6a37.9,37.9,0,0,1,3.45-16.589,25.6,25.6,0,0,1,9.888-11.1A27.663,27.663,0,0,1-.044-64.863,27.393,27.393,0,0,1,14.458-61a26.056,26.056,0,0,1,9.91,11.008,36.811,36.811,0,0,1,3.582,16.37ZM12.261-33.354q0-9.536-3.186-14.48A10.219,10.219,0,0,0-.044-52.778q-11.6,0-12.261,17.4l-.044,4.7q0,9.4,3.12,14.458A10.2,10.2,0,0,0,.044-11.162a10.081,10.081,0,0,0,9.009-4.966q3.164-4.966,3.208-14.282Z" transform="translate(193 580) rotate(-90)" fill="none" stroke="#000" stroke-width="1"/>
  </g>
</svg>
