<svg xmlns="http://www.w3.org/2000/svg" width="208.8" height="197" viewBox="0 0 208.8 197">
  <g id="Group_155" data-name="Group 155" transform="translate(-1032 -3852)">
    <rect id="Rectangle_72" data-name="Rectangle 72" width="145" height="81.92" transform="translate(1091.8 3963.08)" fill="#fff"/>
    <rect id="Rectangle_73" data-name="Rectangle 73" width="154" height="81.92" transform="translate(1082.8 3963.08)" fill="none" stroke="#313a4d" stroke-linejoin="round" stroke-width="8"/>
    <rect id="Rectangle_74" data-name="Rectangle 74" width="120.52" height="20.48" transform="translate(1116.28 3942.6)" fill="#353d4d"/>
    <rect id="Rectangle_75" data-name="Rectangle 75" width="120.52" height="20.48" transform="translate(1116.28 3942.6)" fill="none" stroke="#313a4d" stroke-linejoin="round" stroke-width="8"/>
    <path id="Path_148" data-name="Path 148" d="M622.8,390.55a3.26,3.26,0,1,1-3.26-3.26,3.26,3.26,0,0,1,3.26,3.26" transform="translate(577 3562.29)" fill="#fff"/>
    <path id="Path_149" data-name="Path 149" d="M636.66,390.55a3.26,3.26,0,1,1-3.26-3.26,3.26,3.26,0,0,1,3.26,3.26" transform="translate(577 3562.29)" fill="#fff"/>
    <path id="Path_150" data-name="Path 150" d="M650.53,390.55a3.26,3.26,0,1,1-3.26-3.26,3.26,3.26,0,0,1,3.26,3.26" transform="translate(577 3562.29)" fill="#fff"/>
    <rect id="Rectangle_76" data-name="Rectangle 76" width="97.2" height="162" transform="translate(1036 3856)" fill="#eb2233"/>
    <rect id="Rectangle_77" data-name="Rectangle 77" width="97.2" height="162" transform="translate(1036 3856)" fill="none" stroke="#313a4d" stroke-linejoin="round" stroke-width="8"/>
    <rect id="Rectangle_78" data-name="Rectangle 78" width="97.2" height="32.4" transform="translate(1036 3888.4)" fill="#fff"/>
    <rect id="Rectangle_79" data-name="Rectangle 79" width="97.2" height="32.4" transform="translate(1036 3888.4)" fill="none" stroke="#313a4d" stroke-linejoin="round" stroke-width="8"/>
    <rect id="Rectangle_80" data-name="Rectangle 80" width="97.2" height="32.4" transform="translate(1036 3953.2)" fill="#fff"/>
    <rect id="Rectangle_81" data-name="Rectangle 81" width="97.2" height="32.4" transform="translate(1036 3953.2)" fill="none" stroke="#313a4d" stroke-linejoin="round" stroke-width="8"/>
    <rect id="Rectangle_82" data-name="Rectangle 82" width="64.8" height="129.6" transform="translate(1100.8 3888.4)" fill="#eb2233"/>
    <rect id="Rectangle_83" data-name="Rectangle 83" width="64.8" height="129.6" transform="translate(1100.8 3888.4)" fill="none" stroke="#313a4d" stroke-linejoin="round" stroke-width="8"/>
    <rect id="Rectangle_84" data-name="Rectangle 84" width="21.6" height="21.6" transform="translate(1122.4 3920.8)" fill="#fff"/>
    <rect id="Rectangle_85" data-name="Rectangle 85" width="21.6" height="21.6" transform="translate(1122.4 3964)" fill="#fff"/>
    <rect id="Rectangle_86" data-name="Rectangle 86" width="45" height="6.52" transform="translate(1180 3996.46)" fill="#333e4d"/>
    <rect id="Rectangle_87" data-name="Rectangle 87" width="45" height="6.52" transform="translate(1180 3982)" fill="#333e4d"/>
    <rect id="Rectangle_88" data-name="Rectangle 88" width="45" height="6.52" transform="translate(1180 4010.91)" fill="#333e4d"/>
  </g>
</svg>
