<svg xmlns="http://www.w3.org/2000/svg" viewBox="0 0 160.31 179.82"><defs><style>.cls-1{fill:#1f324f;}.cls-2{fill:#d32027;}.cls-3,.cls-4{fill:#e8ebee;}.cls-4{fill-rule:evenodd;}</style></defs><title>design</title><g id="Layer_2" data-name="Layer 2"><g id="Layer_1-2" data-name="Layer 1"><path class="cls-1" d="M3.75,172.33a3.75,3.75,0,1,0,0,7.49H156.56a3.75,3.75,0,0,0,0-7.49Z"/><path class="cls-1" d="M151.27,33.51,126.8,9,109.4,26.45l24.47,24.46,17.4-17.4ZM129.45,1.1,159.2,30.84l0,0a3.75,3.75,0,0,1,0,5.3h0L136.54,58.84l0,0a3.75,3.75,0,0,1-5.3,0h0L101.47,29.12l0,0a3.75,3.75,0,0,1,0-5.3h0L124.13,1.12l0,0a3.74,3.74,0,0,1,5.3,0Z"/><path class="cls-1" d="M44.6,145.44,14.85,115.7h0a3.75,3.75,0,0,1,0-5.3l0,0L101.45,23.8h0a3.75,3.75,0,0,1,5.3,0l0,0,29.75,29.74h0a3.75,3.75,0,0,1,0,5.3l0,0L49.92,145.46h0a3.75,3.75,0,0,1-5.3,0l0,0ZM22.8,113.05l24.47,24.46,81.3-81.3L104.1,31.74Z"/><path class="cls-1" d="M19.21,120.06,9.49,150.83l30.77-9.73-21-21Zm-19,35.38,13.71-43.39a3.74,3.74,0,0,1,6.26-1.65h0l29.71,29.71a3.74,3.74,0,0,1-1.46,6.27l-1.13-3.57,1.12,3.57L5,160.1a3.75,3.75,0,0,1-4.83-4.66Z"/><path class="cls-1" d="M120.67,45a3.75,3.75,0,1,0-5.3-5.3L29.74,125.28a3.74,3.74,0,1,0,5.29,5.3Z"/><rect class="cls-2" x="25.64" y="85.29" width="114.98" height="13.56" transform="translate(-40.76 85.75) rotate(-45)"/><rect class="cls-2" x="10.75" y="70.41" width="114.98" height="13.56" transform="translate(-34.59 70.86) rotate(-45)"/><rect class="cls-3" x="118.03" y="12.68" width="24.61" height="34.6" transform="translate(16.98 100.94) rotate(-45)"/><polygon class="cls-4" points="29.74 130.58 19.21 120.06 9.49 150.83 40.26 141.1 29.74 130.58"/></g></g></svg>