<svg xmlns="http://www.w3.org/2000/svg" width="261" height="205.4" viewBox="0 0 261 205.4">
  <g id="Group_156" data-name="Group 156" transform="translate(-1329.57 -3843)">
    <rect id="Rectangle_63" data-name="Rectangle 63" width="145" height="81.92" transform="translate(1441.57 3867.48)" fill="#fff"/>
    <rect id="Rectangle_64" data-name="Rectangle 64" width="154" height="81.92" transform="translate(1432.57 3867.48)" fill="none" stroke="#313a4d" stroke-linejoin="round" stroke-width="8"/>
    <rect id="Rectangle_65" data-name="Rectangle 65" width="154" height="20.48" transform="translate(1432.57 3847)" fill="#353d4d"/>
    <rect id="Rectangle_66" data-name="Rectangle 66" width="154" height="20.48" transform="translate(1432.57 3847)" fill="none" stroke="#313a4d" stroke-linejoin="round" stroke-width="8"/>
    <path id="Path_138" data-name="Path 138" d="M970.09,295a3.26,3.26,0,1,1-3.26-3.26,3.26,3.26,0,0,1,3.26,3.26" transform="translate(577 3562.29)" fill="#fff"/>
    <path id="Path_139" data-name="Path 139" d="M984,295a3.26,3.26,0,1,1-3.26-3.26A3.26,3.26,0,0,1,984,295" transform="translate(577 3562.29)" fill="#fff"/>
    <path id="Path_141" data-name="Path 141" d="M806.07,249.98v76.75H690.94V249.98H806.07Z" transform="translate(681 3644.92)" fill="#eb2233"/>
    <path id="Path_142" data-name="Path 142" d="M806.07,249.98v76.75H690.94V249.98H806.07Z" transform="translate(681 3644.92)" fill="none" stroke="#313a4d" stroke-linejoin="round" stroke-width="8"/>
    <path id="Path_143" data-name="Path 143" d="M910.07,332.61Z" transform="translate(577 3562.29)" fill="#fff"/>
    <path id="Path_144" data-name="Path 144" d="M910.07,332.61Z" transform="translate(577 3562.29)" fill="none" stroke="#313a4d" stroke-linejoin="round" stroke-width="8"/>
    <rect id="Rectangle_67" data-name="Rectangle 67" width="38.38" height="76.75" transform="translate(1410.32 3894.9)" fill="#eb2233"/>
    <rect id="Rectangle_68" data-name="Rectangle 68" width="38.38" height="76.75" transform="translate(1410.32 3894.9)" fill="none" stroke="#313a4d" stroke-linejoin="round" stroke-width="8"/>
    <path id="Path_145" data-name="Path 145" d="M884.49,473.32a12.79,12.79,0,1,0,12.79-12.79,12.79,12.79,0,0,0-12.79,12.79" transform="translate(577 3562.29)" fill="#eb2233"/>
    <path id="Path_146" data-name="Path 146" d="M807.74,473.32a12.79,12.79,0,1,0,12.79-12.79,12.79,12.79,0,0,0-12.79,12.79" transform="translate(577 3562.29)" fill="#eb2233"/>
    <path id="Path_147" data-name="Path 147" d="M806.07,365.11H690.94V249.98H652.57" transform="translate(681 3644.92)" fill="none" stroke="#313a4d" stroke-linecap="round" stroke-linejoin="round" stroke-width="8"/>
    <rect id="Rectangle_69" data-name="Rectangle 69" width="63" height="6.52" transform="translate(1511.81 3901.42)" fill="#333e4d"/>
    <rect id="Rectangle_70" data-name="Rectangle 70" width="63" height="6.52" transform="translate(1511.81 3886.97)" fill="#333e4d"/>
    <rect id="Rectangle_71" data-name="Rectangle 71" width="63" height="6.52" transform="translate(1511.81 3915.88)" fill="#333e4d"/>
  </g>
</svg>
