<svg xmlns="http://www.w3.org/2000/svg" width="189.015" height="193.511" viewBox="0 0 189.015 193.511">
  <g id="Group_157" data-name="Group 157" transform="translate(-1706.985 -3837.489)">
    <rect id="Rectangle_36" data-name="Rectangle 36" width="153" height="72" transform="translate(1738 3951.52)" fill="#fff"/>
    <rect id="Rectangle_57" data-name="Rectangle 57" width="154" height="81.92" transform="translate(1738 3945.08)" fill="none" stroke="#313a4d" stroke-linejoin="round" stroke-width="8"/>
    <rect id="Rectangle_58" data-name="Rectangle 58" width="154" height="20.48" transform="translate(1738 3924.6)" fill="#353d4d"/>
    <rect id="Rectangle_59" data-name="Rectangle 59" width="154" height="20.48" transform="translate(1738 3924.6)" fill="none" stroke="#313a4d" stroke-linejoin="round" stroke-width="8"/>
    <path id="Path_132" data-name="Path 132" d="M1275.52,372.55a3.26,3.26,0,1,1-3.26-3.26,3.26,3.26,0,0,1,3.26,3.26" transform="translate(577 3562.29)" fill="#fff"/>
    <path id="Path_133" data-name="Path 133" d="M1289.38,372.55a3.26,3.26,0,1,1-3.26-3.26,3.26,3.26,0,0,1,3.26,3.26" transform="translate(577 3562.29)" fill="#fff"/>
    <path id="Path_134" data-name="Path 134" d="M1303.25,372.55a3.26,3.26,0,1,1-3.26-3.26,3.26,3.26,0,0,1,3.26,3.26" transform="translate(577 3562.29)" fill="#fff"/>
    <path id="Path_135" data-name="Path 135" d="M1190.31,279.21c35.13,1.42,59.21,36.2,49.54,70l-4.39,15.36L1188,446.86l-47.46-82.27-4.39-15.36c-9.67-33.82,14.41-68.6,49.55-70h4.61" transform="translate(577 3562.29)" fill="#eb2233"/>
    <path id="Path_136" data-name="Path 136" d="M1190.31,279.21c35.13,1.42,59.21,36.2,49.54,70l-4.39,15.36L1188,446.86l-47.46-82.27-4.39-15.36c-9.67-33.82,14.41-68.6,49.55-70h2.3C1188.77,279.23,1189.54,279.17,1190.31,279.21Z" transform="translate(577 3562.29)" fill="none" stroke="#313a4d" stroke-linejoin="round" stroke-width="8"/>
    <path id="Path_137" data-name="Path 137" d="M1216,335.06a27.95,27.95,0,1,1-8.2-19.781,28,28,0,0,1,8.2,19.781" transform="translate(577 3562.29)" fill="#fff"/>
    <circle id="Ellipse_31" data-name="Ellipse 31" cx="27.95" cy="27.95" r="27.95" transform="translate(1737.05 3869.4)" fill="none" stroke="#313a4d" stroke-linejoin="round" stroke-width="8"/>
    <rect id="Rectangle_60" data-name="Rectangle 60" width="63" height="6.52" transform="translate(1819 3982.19)" fill="#333e4d"/>
    <rect id="Rectangle_61" data-name="Rectangle 61" width="63" height="6.52" transform="translate(1819 3967.73)" fill="#333e4d"/>
    <rect id="Rectangle_62" data-name="Rectangle 62" width="63" height="6.52" transform="translate(1819 3996.65)" fill="#333e4d"/>
  </g>
</svg>
