<svg xmlns="http://www.w3.org/2000/svg" viewBox="0 0 161.72 140.54"><defs><style>.cls-1,.cls-4{fill:#d32027;}.cls-1,.cls-3,.cls-4,.cls-5{stroke:#1f324f;stroke-linejoin:round;stroke-width:8.41px;}.cls-1,.cls-2{fill-rule:evenodd;}.cls-2,.cls-5{fill:#fff;}.cls-3{fill:none;}</style></defs><title>seo</title><g id="Layer_2" data-name="Layer 2"><g id="Layer_1-2" data-name="Layer 1"><path class="cls-1" d="M44.49,133.54,143.57,31.67,130.44,18.54,31.35,120.41c-1.48,1.47,1.47,7.37,3.61,9.52S43,135,44.49,133.54Z"/><path class="cls-2" d="M135.94,122.8l-65-65L57.77,70.91l65,65c1.48,1.48,7.38-1.46,9.53-3.61S137.42,124.28,135.94,122.8Z"/><path class="cls-3" d="M135.94,122.8l-65-65L57.77,70.91l65,65c1.48,1.48,7.38-1.46,9.53-3.61S137.42,124.28,135.94,122.8Z"/><path class="cls-2" d="M148.23,64.52c-3,0-9.29-2.09-9.29-4.18V24.57H103.16c-2.1,0-4.18-6.25-4.18-9.29S101.06,6,103.16,6h54.35V60.34C157.51,62.43,151.27,64.52,148.23,64.52Z"/><path class="cls-3" d="M148.23,64.52c-3,0-9.29-2.09-9.29-4.18V24.57H103.16c-2.1,0-4.18-6.25-4.18-9.29S101.06,6,103.16,6h54.35V60.34C157.51,62.43,151.27,64.52,148.23,64.52Z"/><circle class="cls-4" cx="41.36" cy="41.36" r="37.15"/><circle class="cls-5" cx="41.36" cy="41.36" r="18.58"/></g></g></svg>