<svg xmlns="http://www.w3.org/2000/svg" viewBox="0 0 142.5 187.5"><defs><style>.cls-1,.cls-3{fill:#fff;}.cls-1,.cls-2{stroke:#1f324f;stroke-linejoin:round;stroke-width:7.5px;}.cls-2{fill:#d32027;}.cls-3{fill-rule:evenodd;}</style></defs><title>smm</title><g id="Layer_2" data-name="Layer 2"><g id="Layer_1-2" data-name="Layer 1"><rect class="cls-1" x="3.75" y="3.75" width="105" height="150"/><rect class="cls-2" x="3.75" y="153.75" width="105" height="30"/><circle class="cls-1" cx="56.25" cy="168.75" r="7.5"/><rect class="cls-2" x="33.75" y="81.75" width="42" height="42"/><path class="cls-3" d="M56.54,107.59c.05-.84.43-2.15,1.38-1.44a13.09,13.09,0,0,1,1.54,1.61,2.69,2.69,0,0,0,2.22,1,18.61,18.61,0,0,0,3.06-.14c1.5-.54-1.15-3-1.8-3.58-.27-.23-.58-.57-.81-.81a.87.87,0,0,1-.2-1.1l1-1.41c.3-.33,1.4-1.9,1.67-2.33.38-.62,1.17-1.84.15-2a29.49,29.49,0,0,0-3.12,0c-1.38,0-1.1-.14-1.79,1.44-.45,1-1.86,3.52-2.6,3.8-1.38.53-.3-4.48-.89-5.35-.35-.53-2-.46-2.75-.45s-2.12.06-2.38.79c.08.07,0,0,.14.09a2.48,2.48,0,0,1,.48.15,1.33,1.33,0,0,1,.4.38,7.74,7.74,0,0,1,0,4.19c-.65,1.28-2.55-2.32-2.87-3-.47-.91-.65-1.81-1.18-2a18.6,18.6,0,0,0-3.12-.07c-.53,0-1,.1-.79.73a10.3,10.3,0,0,0,.49,1.08,35.81,35.81,0,0,0,3.55,6.06,7.92,7.92,0,0,0,6.1,3.52C56.32,108.72,56.46,108.8,56.54,107.59Z"/><rect class="cls-2" x="96.75" y="81.75" width="42" height="42"/><path class="cls-3" d="M126.1,98.47a12.26,12.26,0,0,1-18.85,10.88,8.66,8.66,0,0,0,6.38-1.79,4.31,4.31,0,0,1-4-3,4.39,4.39,0,0,0,2-.07,4.33,4.33,0,0,1-3.46-4.28,4.48,4.48,0,0,0,2,.54A4.33,4.33,0,0,1,108.71,95a12.24,12.24,0,0,0,8.88,4.51,4.31,4.31,0,0,1,7.34-3.93,8.81,8.81,0,0,0,2.74-1,4.32,4.32,0,0,1-1.89,2.38,8.52,8.52,0,0,0,2.47-.67A8.94,8.94,0,0,1,126.1,98.47Z"/><rect class="cls-2" x="33.75" y="18.75" width="42" height="42"/><path class="cls-3" d="M59.7,36.53H56.58V34.45c.22-2,3.46-1.59,3.46-1.59V29.49h0c-.11,0-6.44-1.53-7.7,3.29h0v0a24.48,24.48,0,0,0-.18,3.71h-2.7v3.68h2.87v10H56.5v-10h3.19l.36-3.68Z"/><rect class="cls-2" x="96.75" y="18.75" width="42" height="42"/><path class="cls-3" d="M117.49,29.25c-2.61,0-3,0-4.07.06a7.67,7.67,0,0,0-2.55.49,5.36,5.36,0,0,0-3.07,3.07,7.67,7.67,0,0,0-.49,2.55c0,1.12-.06,1.48-.06,4.33s0,3.21.06,4.33a7.67,7.67,0,0,0,.49,2.55,5.36,5.36,0,0,0,3.07,3.07,7.67,7.67,0,0,0,2.55.49c1.12.05,1.48.06,4.33.06s3.21,0,4.33-.06a7.67,7.67,0,0,0,2.55-.49,5.36,5.36,0,0,0,3.07-3.07,7.67,7.67,0,0,0,.49-2.55c.05-1.09.06-1.46.06-4.07v-.52c0-2.61,0-3-.06-4.07a7.67,7.67,0,0,0-.49-2.55,5.36,5.36,0,0,0-3.07-3.07,7.67,7.67,0,0,0-2.55-.49c-1.09,0-1.46-.06-4.07-.06Zm7.12,4.9a1.26,1.26,0,1,1-1.26-1.26,1.26,1.26,0,0,1,1.26,1.26Zm-6.86,9.1a3.5,3.5,0,1,1,3.5-3.5,3.5,3.5,0,0,1-3.5,3.5Zm0-8.89a5.39,5.39,0,1,1-5.39,5.39,5.39,5.39,0,0,1,5.39-5.39Zm0-3.22c2.8,0,3.14,0,4.24.06a6,6,0,0,1,2,.36,3.52,3.52,0,0,1,2,2,6,6,0,0,1,.36,1.95c0,1.1.06,1.44.06,4.24s0,3.14-.06,4.24a6,6,0,0,1-.36,1.95,3.52,3.52,0,0,1-2,2,6,6,0,0,1-2,.36c-1.1.05-1.44.06-4.24.06s-3.14,0-4.24-.06a6,6,0,0,1-2-.36,3.52,3.52,0,0,1-2-2A6,6,0,0,1,109.2,44c0-1.1-.06-1.44-.06-4.24s0-3.14.06-4.24a6,6,0,0,1,.36-1.95,3.52,3.52,0,0,1,2-2,6,6,0,0,1,2-.36C114.61,31.15,115,31.14,117.75,31.14Z"/></g></g></svg>