<svg xmlns="http://www.w3.org/2000/svg" width="66.786" height="618.165" viewBox="0 0 66.786 618.165">
  <g id="EC" transform="translate(-464.593 -289.682)">
    <path id="Path_174" data-name="Path 174" d="M19.336-27.158H-4.922v15.293H23.73V0H-20.347V-63.984H23.818v11.909H-4.922v13.491H19.336Z" transform="translate(530 887) rotate(-90)" fill="none" stroke="#000" stroke-width="1"/>
    <path id="Path_173" data-name="Path 173" d="M12.854-21.885H-13.557V-33.311H12.854Z" transform="translate(530 837) rotate(-90)" fill="none" stroke="#000" stroke-width="1"/>
    <path id="Path_172" data-name="Path 172" d="M27.07-21.665a23.367,23.367,0,0,1-3.6,11.8,21.748,21.748,0,0,1-9.25,7.932A31.485,31.485,0,0,1,.615.879Q-12,.879-19.248-7.339t-7.251-23.2v-3.164a38.73,38.73,0,0,1,3.274-16.458,24.807,24.807,0,0,1,9.426-10.9A26.3,26.3,0,0,1,.439-64.907q11.646,0,18.721,6.13T27.2-41.88H11.821q-.176-5.845-2.944-8.394T.439-52.822q-5.757,0-8.437,4.307t-2.812,13.755v4.526Q-10.811-20-8.24-15.6T.615-11.206q5.317,0,8.13-2.5t2.988-7.954Z" transform="translate(530 783) rotate(-90)" fill="none" stroke="#000" stroke-width="1"/>
    <path id="Path_169" data-name="Path 169" d="M27.949-30.674a37.732,37.732,0,0,1-3.472,16.567,25.658,25.658,0,0,1-9.866,11.1A27.471,27.471,0,0,1,.044.879a27.859,27.859,0,0,1-14.5-3.757,25.615,25.615,0,0,1-9.866-10.745,36.646,36.646,0,0,1-3.713-16.04v-3.6a37.9,37.9,0,0,1,3.45-16.589,25.6,25.6,0,0,1,9.888-11.1A27.663,27.663,0,0,1-.044-64.863,27.393,27.393,0,0,1,14.458-61a26.056,26.056,0,0,1,9.91,11.008,36.811,36.811,0,0,1,3.582,16.37ZM12.261-33.354q0-9.536-3.186-14.48A10.219,10.219,0,0,0-.044-52.778q-11.6,0-12.261,17.4l-.044,4.7q0,9.4,3.12,14.458A10.2,10.2,0,0,0,.044-11.162a10.081,10.081,0,0,0,9.009-4.966q3.164-4.966,3.208-14.282Z" transform="translate(530 718) rotate(-90)" fill="none" stroke="#000" stroke-width="1"/>
    <path id="Path_170" data-name="Path 170" d="M-14.348-63.984-.066-19.468,14.172-63.984h20.3V0H19.006V-14.941L20.5-45.527,5.032,0h-10.2L-20.676-45.571l1.494,30.63V0H-34.607V-63.984Z" transform="translate(530 644) rotate(-90)" fill="none" stroke="#000" stroke-width="1"/>
    <path id="Path_171" data-name="Path 171" d="M-14.348-63.984-.066-19.468,14.172-63.984h20.3V0H19.006V-14.941L20.5-45.527,5.032,0h-10.2L-20.676-45.571l1.494,30.63V0H-34.607V-63.984Z" transform="translate(530 562) rotate(-90)" fill="none" stroke="#000" stroke-width="1"/>
    <path id="Path_168" data-name="Path 168" d="M19.336-27.158H-4.922v15.293H23.73V0H-20.347V-63.984H23.818v11.909H-4.922v13.491H19.336Z" transform="translate(530 494) rotate(-90)" fill="none" stroke="#000" stroke-width="1"/>
    <path id="Path_167" data-name="Path 167" d="M-.747-22.632H-9.1V0H-24.521V-63.984H.659q11.382,0,17.8,5.048t6.416,14.267a20.774,20.774,0,0,1-2.7,11.063,19.183,19.183,0,0,1-8.459,7.112L27.07-.66V0H10.547ZM-9.1-34.5H.659q4.395,0,6.614-2.313a8.941,8.941,0,0,0,2.219-6.454,9.046,9.046,0,0,0-2.241-6.5Q5.01-52.119.659-52.119H-9.1Z" transform="translate(530 435) rotate(-90)" fill="none" stroke="#000" stroke-width="1"/>
    <path id="Path_165" data-name="Path 165" d="M27.07-21.665a23.367,23.367,0,0,1-3.6,11.8,21.748,21.748,0,0,1-9.25,7.932A31.485,31.485,0,0,1,.615.879Q-12,.879-19.248-7.339t-7.251-23.2v-3.164a38.73,38.73,0,0,1,3.274-16.458,24.807,24.807,0,0,1,9.426-10.9A26.3,26.3,0,0,1,.439-64.907q11.646,0,18.721,6.13T27.2-41.88H11.821q-.176-5.845-2.944-8.394T.439-52.822q-5.757,0-8.437,4.307t-2.812,13.755v4.526Q-10.811-20-8.24-15.6T.615-11.206q5.317,0,8.13-2.5t2.988-7.954Z" transform="translate(530 372) rotate(-90)" fill="none" stroke="#000" stroke-width="1"/>
    <path id="Path_166" data-name="Path 166" d="M19.336-27.158H-4.922v15.293H23.73V0H-20.347V-63.984H23.818v11.909H-4.922v13.491H19.336Z" transform="translate(530 314) rotate(-90)" fill="none" stroke="#000" stroke-width="1"/>
  </g>
</svg>
