<svg xmlns="http://www.w3.org/2000/svg" width="172.42" height="549.655" viewBox="0 0 172.42 549.655">
  <g id="Group_155" data-name="Group 155" transform="translate(-473.958 -296.682)">
    <path id="Path_165" data-name="Path 165" d="M27.07-21.665a23.367,23.367,0,0,1-3.6,11.8,21.748,21.748,0,0,1-9.25,7.932A31.485,31.485,0,0,1,.615.879Q-12,.879-19.248-7.339t-7.251-23.2v-3.164a38.73,38.73,0,0,1,3.274-16.458,24.807,24.807,0,0,1,9.426-10.9A26.3,26.3,0,0,1,.439-64.907q11.646,0,18.721,6.13T27.2-41.88H11.821q-.176-5.845-2.944-8.394T.439-52.822q-5.757,0-8.437,4.307t-2.812,13.755v4.526Q-10.811-20-8.24-15.6T.615-11.206q5.317,0,8.13-2.5t2.988-7.954Z" transform="translate(539.366 819.337) rotate(-90)" fill="none" stroke="#000" stroke-width="1"/>
    <path id="Path_180" data-name="Path 180" d="M27.949-30.674a37.732,37.732,0,0,1-3.472,16.567,25.658,25.658,0,0,1-9.866,11.1A27.471,27.471,0,0,1,.044.879a27.859,27.859,0,0,1-14.5-3.757,25.615,25.615,0,0,1-9.866-10.745,36.646,36.646,0,0,1-3.713-16.04v-3.6a37.9,37.9,0,0,1,3.45-16.589,25.6,25.6,0,0,1,9.888-11.1A27.663,27.663,0,0,1-.044-64.863,27.393,27.393,0,0,1,14.458-61a26.056,26.056,0,0,1,9.91,11.008,36.811,36.811,0,0,1,3.582,16.37ZM12.261-33.354q0-9.536-3.186-14.48A10.219,10.219,0,0,0-.044-52.778q-11.6,0-12.261,17.4l-.044,4.7q0,9.4,3.12,14.458A10.2,10.2,0,0,0,.044-11.162a10.081,10.081,0,0,0,9.009-4.966q3.164-4.966,3.208-14.282Z" transform="translate(540 754) rotate(-90)" fill="none" stroke="#000" stroke-width="1"/>
    <path id="Path_178" data-name="Path 178" d="M-.747-22.632H-9.1V0H-24.521V-63.984H.659q11.382,0,17.8,5.048t6.416,14.267a20.774,20.774,0,0,1-2.7,11.063,19.183,19.183,0,0,1-8.459,7.112L27.07-.66V0H10.547ZM-9.1-34.5H.659q4.395,0,6.614-2.313a8.941,8.941,0,0,0,2.219-6.454,9.046,9.046,0,0,0-2.241-6.5Q5.01-52.119.659-52.119H-9.1Z" transform="translate(540 690) rotate(-90)" fill="none" stroke="#000" stroke-width="1"/>
    <path id="Path_176" data-name="Path 176" d="M-9.031-21.709V0H-24.456V-63.984H1.077a29.738,29.738,0,0,1,12.986,2.7,20.368,20.368,0,0,1,8.745,7.69,21,21,0,0,1,3.1,11.316q0,9.36-6.7,14.963T.813-21.709Zm0-11.909H1.077q4.482,0,6.833-2.241a8.327,8.327,0,0,0,2.351-6.328,10.293,10.293,0,0,0-2.417-7.163,8.559,8.559,0,0,0-6.592-2.725H-9.031Z" transform="translate(540 628) rotate(-90)" fill="none" stroke="#000" stroke-width="1"/>
    <path id="Path_169" data-name="Path 169" d="M-.747-22.632H-9.1V0H-24.521V-63.984H.659q11.382,0,17.8,5.048t6.416,14.267a20.774,20.774,0,0,1-2.7,11.063,19.183,19.183,0,0,1-8.459,7.112L27.07-.66V0H10.547ZM-9.1-34.5H.659q4.395,0,6.614-2.313a8.941,8.941,0,0,0,2.219-6.454,9.046,9.046,0,0,0-2.241-6.5Q5.01-52.119.659-52.119H-9.1Z" transform="translate(540 500) rotate(-90)" fill="none" stroke="#000" stroke-width="1"/>
    <path id="Path_170" data-name="Path 170" d="M10.525-11.953H-10.613L-14.3,0H-30.784L-7.317-63.984h14.5L30.828,0H14.26ZM-6.921-23.862H6.833l-6.9-22.192Z" transform="translate(540 436) rotate(-90)" fill="none" stroke="#000" stroke-width="1"/>
    <path id="Path_171" data-name="Path 171" d="M26.7-52.075H7.493V0H-7.932V-52.075H-26.785V-63.984H26.7Z" transform="translate(540 379) rotate(-90)" fill="none" stroke="#000" stroke-width="1"/>
    <path id="Path_172" data-name="Path 172" d="M19.336-27.158H-4.922v15.293H23.73V0H-20.347V-63.984H23.818v11.909H-4.922v13.491H19.336Z" transform="translate(540 321) rotate(-90)" fill="none" stroke="#000" stroke-width="1"/>
    <path id="Path_174" data-name="Path 174" d="M27.949-30.674a37.732,37.732,0,0,1-3.472,16.567,25.658,25.658,0,0,1-9.866,11.1A27.471,27.471,0,0,1,.044.879a27.859,27.859,0,0,1-14.5-3.757,25.615,25.615,0,0,1-9.866-10.745,36.646,36.646,0,0,1-3.713-16.04v-3.6a37.9,37.9,0,0,1,3.45-16.589,25.6,25.6,0,0,1,9.888-11.1A27.663,27.663,0,0,1-.044-64.863,27.393,27.393,0,0,1,14.458-61a26.056,26.056,0,0,1,9.91,11.008,36.811,36.811,0,0,1,3.582,16.37ZM12.261-33.354q0-9.536-3.186-14.48A10.219,10.219,0,0,0-.044-52.778q-11.6,0-12.261,17.4l-.044,4.7q0,9.4,3.12,14.458A10.2,10.2,0,0,0,.044-11.162a10.081,10.081,0,0,0,9.009-4.966q3.164-4.966,3.208-14.282Z" transform="translate(540 564) rotate(-90)" fill="none" stroke="#000" stroke-width="1"/>
    <path id="Path_179" data-name="Path 179" d="M15.293-23.862l7.339-40.122H37.925L24.346,0h-16L-.22-36.475-8.613,0H-24.565L-38.188-63.984h15.337l7.339,40.122,8.789-40.122h13.1Z" transform="translate(645 733) rotate(-90)" fill="none" stroke="#000" stroke-width="1"/>
    <path id="Path_177" data-name="Path 177" d="M19.336-27.158H-4.922v15.293H23.73V0H-20.347V-63.984H23.818v11.909H-4.922v13.491H19.336Z" transform="translate(645 666) rotate(-90)" fill="none" stroke="#000" stroke-width="1"/>
    <path id="Path_175" data-name="Path 175" d="M-24.192,0V-63.984H-1.208q12.349,0,18.787,4.526t6.438,13.14a15.224,15.224,0,0,1-2.285,8.481,13.316,13.316,0,0,1-6.724,5.186,13.485,13.485,0,0,1,7.69,4.922,14.311,14.311,0,0,1,2.681,8.789q0,9.4-5.955,14.128T1.78,0ZM-8.767-27.2v15.337H1.34a9.613,9.613,0,0,0,6.416-1.912A6.69,6.69,0,0,0,10-19.16q0-8-7.954-8.042Zm0-10.107H-.725q5.054-.044,7.207-1.851a6.568,6.568,0,0,0,2.153-5.333q0-4.055-2.329-5.84t-7.515-1.785H-8.767Z" transform="translate(645 608) rotate(-90)" fill="none" stroke="#000" stroke-width="1"/>
    <path id="Path_173" data-name="Path 173" d="M9.668-17.007a6.338,6.338,0,0,0-2.4-5.273q-2.4-1.89-8.416-3.911A80.736,80.736,0,0,1-10.986-30.1Q-23.423-36.211-23.423-46.89a15.053,15.053,0,0,1,3.1-9.382A20.039,20.039,0,0,1-11.558-62.6,34.117,34.117,0,0,1,1.187-64.863,29.843,29.843,0,0,1,13.557-62.4a19.586,19.586,0,0,1,8.5,7.009A18.3,18.3,0,0,1,25.093-45H9.712a7.735,7.735,0,0,0-2.4-6.064A9.335,9.335,0,0,0,.835-53.218a10.528,10.528,0,0,0-6.526,1.824,5.594,5.594,0,0,0-2.4,4.636q0,2.461,2.637,4.46t9.272,4.131a56.8,56.8,0,0,1,10.9,4.592Q25.093-27.6,25.093-17.095A15.623,15.623,0,0,1,18.765-3.911Q12.437.879,1.406.879A34.439,34.439,0,0,1-12.678-1.912,21.235,21.235,0,0,1-22.17-9.558a19.924,19.924,0,0,1-3.186-11.184H-9.888q0,5.142,2.659,7.581t8.635,2.439a9.927,9.927,0,0,0,6.042-1.648A5.439,5.439,0,0,0,9.668-17.007Z" transform="translate(645 546) rotate(-90)" fill="none" stroke="#000" stroke-width="1"/>
    <path id="Path_168" data-name="Path 168" d="M7.69,0H-7.69V-63.984H7.69Z" transform="translate(645 500) rotate(-90)" fill="none" stroke="#000" stroke-width="1"/>
    <path id="Path_167" data-name="Path 167" d="M26.7-52.075H7.493V0H-7.932V-52.075H-26.785V-63.984H26.7Z" transform="translate(645 454) rotate(-90)" fill="none" stroke="#000" stroke-width="1"/>
    <path id="Path_166" data-name="Path 166" d="M19.336-27.158H-4.922v15.293H23.73V0H-20.347V-63.984H23.818v11.909H-4.922v13.491H19.336Z" transform="translate(645 397) rotate(-90)" fill="none" stroke="#000" stroke-width="1"/>
  </g>
</svg>
