<svg xmlns="http://www.w3.org/2000/svg" width="172.786" height="399.108" viewBox="0 0 172.786 399.108">
  <g id="LANG" transform="translate(-263.593 -484.948)">
    <path id="Path_175" data-name="Path 175" d="M-4.131-11.865H22.72V0H-19.556V-63.984H-4.131Z" transform="translate(330 864) rotate(-90)" fill="none" stroke="#000" stroke-width="1"/>
    <path id="Path_174" data-name="Path 174" d="M10.525-11.953H-10.613L-14.3,0H-30.784L-7.317-63.984h14.5L30.828,0H14.26ZM-6.921-23.862H6.833l-6.9-22.192Z" transform="translate(329 804) rotate(-90)" fill="none" stroke="#000" stroke-width="1"/>
    <path id="Path_169" data-name="Path 169" d="M26.675,0H11.338L-11.338-39.814V0H-26.763V-63.984h15.425L11.294-24.17V-63.984H26.675Z" transform="translate(329 738) rotate(-90)" fill="none" stroke="#000" stroke-width="1"/>
    <path id="Path_168" data-name="Path 168" d="M-24.258,0V-63.984h20.61A30.318,30.318,0,0,1,11.6-60.139,27.028,27.028,0,0,1,22.17-49.285a32.772,32.772,0,0,1,3.845,15.71v2.944A32.961,32.961,0,0,1,22.3-14.875a27.145,27.145,0,0,1-10.459,10.9A29.651,29.651,0,0,1-3.208,0ZM-8.833-52.075v40.21h5.361q6.636,0,10.2-4.724t3.56-14.041V-33.4q0-9.272-3.56-13.975t-10.371-4.7Z" transform="translate(330 674) rotate(-90)" fill="none" stroke="#000" stroke-width="1"/>
    <path id="Path_165" data-name="Path 165" d="M7.69,0H-7.69V-63.984H7.69Z" transform="translate(329 627) rotate(-90)" fill="none" stroke="#000" stroke-width="1"/>
    <path id="Path_166" data-name="Path 166" d="M26.675,0H11.338L-11.338-39.814V0H-26.763V-63.984h15.425L11.294-24.17V-63.984H26.675Z" transform="translate(329 578) rotate(-90)" fill="none" stroke="#000" stroke-width="1"/>
    <path id="Path_170" data-name="Path 170" d="M26.543-7.91q-3.56,3.955-10.415,6.372A44.921,44.921,0,0,1,1.1.879q-12.568,0-20.083-7.69t-8.042-21.4l-.044-5.537a38.184,38.184,0,0,1,3.34-16.5,24.8,24.8,0,0,1,9.558-10.854A27.037,27.037,0,0,1,.22-64.907q11.953,0,18.567,5.471T26.5-43.11H11.646q-.791-5.361-3.428-7.646T.747-53.042A10.064,10.064,0,0,0-8.218-48.12q-3.164,4.922-3.208,14.063v3.867q0,9.58,3.274,14.392T2.153-10.986q6.021,0,8.965-2.681V-23.6H.4V-34.189H26.543Z" transform="translate(435 652) rotate(-90)" fill="none" stroke="#000" stroke-width="1"/>
    <path id="Path_171" data-name="Path 171" d="M-9.031-21.709V0H-24.456V-63.984H1.077a29.738,29.738,0,0,1,12.986,2.7,20.368,20.368,0,0,1,8.745,7.69,21,21,0,0,1,3.1,11.316q0,9.36-6.7,14.963T.813-21.709Zm0-11.909H1.077q4.482,0,6.833-2.241a8.327,8.327,0,0,0,2.351-6.328,10.293,10.293,0,0,0-2.417-7.163,8.559,8.559,0,0,0-6.592-2.725H-9.031Z" transform="translate(435 772) rotate(-90)" fill="none" stroke="#000" stroke-width="1"/>
    <path id="Path_172" data-name="Path 172" d="M10.525-11.953H-10.613L-14.3,0H-30.784L-7.317-63.984h14.5L30.828,0H14.26ZM-6.921-23.862H6.833l-6.9-22.192Z" transform="translate(434 717) rotate(-90)" fill="none" stroke="#000" stroke-width="1"/>
    <path id="Path_167" data-name="Path 167" d="M26.543-7.91q-3.56,3.955-10.415,6.372A44.921,44.921,0,0,1,1.1.879q-12.568,0-20.083-7.69t-8.042-21.4l-.044-5.537a38.184,38.184,0,0,1,3.34-16.5,24.8,24.8,0,0,1,9.558-10.854A27.037,27.037,0,0,1,.22-64.907q11.953,0,18.567,5.471T26.5-43.11H11.646q-.791-5.361-3.428-7.646T.747-53.042A10.064,10.064,0,0,0-8.218-48.12q-3.164,4.922-3.208,14.063v3.867q0,9.58,3.274,14.392T2.153-10.986q6.021,0,8.965-2.681V-23.6H.4V-34.189H26.543Z" transform="translate(329 512) rotate(-90)" fill="none" stroke="#000" stroke-width="1"/>
    <path id="Path_173" data-name="Path 173" d="M19.336-27.158H-4.922v15.293H23.73V0H-20.347V-63.984H23.818v11.909H-4.922v13.491H19.336Z" transform="translate(435 592) rotate(-90)" fill="none" stroke="#000" stroke-width="1"/>
  </g>
</svg>
