<svg xmlns="http://www.w3.org/2000/svg" width="171.786" height="549.311" viewBox="0 0 171.786 549.311">
  <path id="Path_165" data-name="Path 165" d="M-219.751-21.665a23.367,23.367,0,0,1-3.6,11.8,21.748,21.748,0,0,1-9.25,7.932,31.485,31.485,0,0,1-13.6,2.813q-12.612,0-19.863-8.218t-7.251-23.2v-3.164a38.73,38.73,0,0,1,3.274-16.458,24.807,24.807,0,0,1,9.426-10.9,26.3,26.3,0,0,1,14.238-3.845q11.646,0,18.721,6.13t8.042,16.9H-235q-.176-5.845-2.944-8.394t-8.437-2.549q-5.757,0-8.437,4.307t-2.812,13.755v4.526q0,10.239,2.571,14.634t8.855,4.395q5.317,0,8.13-2.5t2.988-7.954Zm65.259-9.009a37.732,37.732,0,0,1-3.472,16.567,25.658,25.658,0,0,1-9.866,11.1A27.471,27.471,0,0,1-182.4.879a27.859,27.859,0,0,1-14.5-3.757,25.615,25.615,0,0,1-9.866-10.745,36.646,36.646,0,0,1-3.713-16.04v-3.6a37.9,37.9,0,0,1,3.45-16.589,25.6,25.6,0,0,1,9.888-11.1,27.663,27.663,0,0,1,14.656-3.911A27.393,27.393,0,0,1-167.983-61a26.056,26.056,0,0,1,9.91,11.008,36.811,36.811,0,0,1,3.582,16.37Zm-15.688-2.681q0-9.536-3.186-14.48a10.219,10.219,0,0,0-9.119-4.944q-11.6,0-12.261,17.4l-.044,4.7q0,9.4,3.12,14.458a10.2,10.2,0,0,0,9.272,5.054,10.081,10.081,0,0,0,9.009-4.966q3.164-4.966,3.208-14.282Zm51.2,10.723h-8.35V0h-15.425V-63.984h25.181q11.382,0,17.8,5.048t6.416,14.267a20.774,20.774,0,0,1-2.7,11.063,19.183,19.183,0,0,1-8.459,7.112L-91.166-.66V0h-16.523Zm-8.35-11.865h9.756q4.395,0,6.614-2.313a8.941,8.941,0,0,0,2.219-6.454,9.046,9.046,0,0,0-2.241-6.5q-2.241-2.357-6.592-2.357h-9.756Zm62.491,12.788V0H-80.267V-63.984h25.532a29.738,29.738,0,0,1,12.986,2.7A20.368,20.368,0,0,1-33-53.591a21,21,0,0,1,3.1,11.316q0,9.36-6.7,14.963T-55-21.709Zm0-11.909h10.107q4.482,0,6.833-2.241a8.327,8.327,0,0,0,2.351-6.328,10.293,10.293,0,0,0-2.417-7.163,8.559,8.559,0,0,0-6.592-2.725H-64.842ZM36.277-30.674a37.732,37.732,0,0,1-3.472,16.567,25.658,25.658,0,0,1-9.866,11.1A27.471,27.471,0,0,1,8.372.879,27.859,27.859,0,0,1-6.13-2.878,25.615,25.615,0,0,1-16-13.623a36.646,36.646,0,0,1-3.713-16.04v-3.6a37.9,37.9,0,0,1,3.45-16.589,25.6,25.6,0,0,1,9.888-11.1A27.663,27.663,0,0,1,8.284-64.863,27.393,27.393,0,0,1,22.786-61,26.056,26.056,0,0,1,32.7-49.988a36.811,36.811,0,0,1,3.582,16.37ZM20.588-33.354q0-9.536-3.186-14.48a10.219,10.219,0,0,0-9.119-4.944q-11.6,0-12.261,17.4l-.044,4.7q0,9.4,3.12,14.458a10.2,10.2,0,0,0,9.272,5.054,10.081,10.081,0,0,0,9.009-4.966q3.164-4.966,3.208-14.282Zm51.2,10.723h-8.35V0H48.011V-63.984H73.192q11.382,0,17.8,5.048t6.416,14.267a20.774,20.774,0,0,1-2.7,11.063,19.183,19.183,0,0,1-8.459,7.112L99.6-.66V0H83.079ZM63.436-34.5h9.756q4.395,0,6.614-2.313a8.941,8.941,0,0,0,2.219-6.454,9.046,9.046,0,0,0-2.241-6.5q-2.241-2.357-6.592-2.357H63.436Zm83.409,22.544H125.707L122.016,0H105.536L129-63.984h14.5L167.147,0H150.58ZM129.4-23.862h13.755l-6.9-22.192Zm91.143-28.213h-19.2V0H185.913V-52.075H167.06V-63.984h53.481Zm49.967,24.917H246.25v15.293H274.9V0H230.826V-63.984h44.165v11.909H246.25v13.491h24.258Zm-416.057,108.3,7.339-40.122h15.293L-136.5,105h-16l-8.569-36.475L-169.455,105h-15.952L-199.03,41.016h15.337l7.339,40.122,8.789-40.122h13.1Zm72.115-3.3H-97.692V93.135h28.652V105h-44.077V41.016h44.165V52.925h-28.74V66.416h24.258ZM-58.975,105V41.016h22.983q12.349,0,18.787,4.526t6.438,13.14a15.224,15.224,0,0,1-2.285,8.481,13.316,13.316,0,0,1-6.724,5.186,13.485,13.485,0,0,1,7.69,4.922A14.311,14.311,0,0,1-9.4,86.06q0,9.4-5.955,14.128T-33,105Zm15.425-27.2V93.135h10.107a9.613,9.613,0,0,0,6.416-1.912,6.69,6.69,0,0,0,2.241-5.383q0-8-7.954-8.042Zm0-10.107h8.042q5.054-.044,7.207-1.851a6.568,6.568,0,0,0,2.153-5.333q0-4.055-2.329-5.84t-7.515-1.785h-7.559Zm79.41,20.3a6.338,6.338,0,0,0-2.4-5.273q-2.4-1.89-8.416-3.911A80.737,80.737,0,0,1,15.205,74.9Q2.769,68.789,2.769,58.11a15.053,15.053,0,0,1,3.1-9.382A20.039,20.039,0,0,1,14.634,42.4a34.117,34.117,0,0,1,12.744-2.263A29.843,29.843,0,0,1,39.749,42.6a19.586,19.586,0,0,1,8.5,7.009A18.3,18.3,0,0,1,51.284,60H35.9a7.735,7.735,0,0,0-2.4-6.064,9.335,9.335,0,0,0-6.482-2.153A10.528,10.528,0,0,0,20.5,53.606a5.594,5.594,0,0,0-2.4,4.636q0,2.461,2.637,4.46t9.272,4.131a56.8,56.8,0,0,1,10.9,4.592Q51.284,77.4,51.284,87.905a15.623,15.623,0,0,1-6.328,13.184q-6.328,4.79-17.358,4.79a34.439,34.439,0,0,1-14.084-2.791,21.235,21.235,0,0,1-9.492-7.646A19.924,19.924,0,0,1,.835,84.258H16.3q0,5.142,2.659,7.581T27.6,94.277a9.927,9.927,0,0,0,6.042-1.648A5.439,5.439,0,0,0,35.859,87.993ZM79.41,105H64.029V41.016H79.41Zm64.732-52.075h-19.2V105H109.513V52.925H90.661V41.016h53.481Zm49.967,24.917H169.851V93.135H198.5V105H154.426V41.016h44.165V52.925h-28.74V66.416h24.258Z" transform="translate(65.407 275.491) rotate(-90)" fill="none" stroke="#000" stroke-width="1"/>
</svg>
